<svg width="215" height="160" viewBox="0 0 215 160" fill="none" xmlns="http://www.w3.org/2000/svg">
<g id="9793223_4202056 1" clip-path="url(#clip0_731_2195)">
<g id="Background_Complete">
<path id="Vector" d="M101.947 121.376H19.3934C18.048 121.376 16.9531 120.281 16.9531 118.936V2.89341C16.9531 1.548 18.048 0.453125 19.3934 0.453125H101.947C103.292 0.453125 104.387 1.548 104.387 2.89341V118.936C104.387 120.281 103.292 121.376 101.947 121.376ZM19.3934 0.560432C18.1066 0.560432 17.06 1.607 17.06 2.89384V118.936C17.06 120.223 18.1066 121.27 19.3934 121.27H101.947C103.233 121.27 104.28 120.223 104.28 118.936V2.89341C104.28 1.607 103.233 0.560005 101.947 0.560005L19.3934 0.560432Z" fill="#EBEBEB"/>
<path id="Vector_2" d="M194.411 121.376H111.858C110.512 121.376 109.418 120.281 109.418 118.936V2.89341C109.418 1.548 110.513 0.453125 111.858 0.453125H194.411C195.757 0.453125 196.851 1.548 196.851 2.89341V118.936C196.852 120.281 195.757 121.376 194.411 121.376ZM111.858 0.560432C110.571 0.560432 109.525 1.607 109.525 2.89384V118.936C109.525 120.223 110.571 121.27 111.858 121.27H194.411C195.698 121.27 196.744 120.223 196.744 118.936V2.89341C196.744 1.607 195.698 0.560005 194.411 0.560005L111.858 0.560432Z" fill="#EBEBEB"/>
<path id="Vector_3" d="M192.957 147.324H178.797V147.431H192.957V147.324Z" fill="#EBEBEB"/>
<path id="Vector_4" d="M142.218 148.484H138.502V148.591H142.218V148.484Z" fill="#EBEBEB"/>
<path id="Vector_5" d="M178.373 143.354H170.168V143.461H178.373V143.354Z" fill="#EBEBEB"/>
<path id="Vector_6" d="M41.5127 144.073H23.0469V144.179H41.5127V144.073Z" fill="#EBEBEB"/>
<path id="Vector_7" d="M48.0239 144.073H45.3164V144.179H48.0239V144.073Z" fill="#EBEBEB"/>
<path id="Vector_8" d="M96.8706 145.878H56.8223V145.985H96.8706V145.878Z" fill="#EBEBEB"/>
<path id="Vector_9" d="M214.377 140.443H0.617188V140.55H214.377V140.443Z" fill="#EBEBEB"/>
<g id="Group">
<path id="Vector_10" d="M66.8589 17.6416H16.5723V91.9459H66.8589V17.6416Z" fill="#E0E0E0"/>
<path id="Vector_11" d="M68.7085 17.6416H18.4219V91.9459H68.7085V17.6416Z" fill="#F0F0F0"/>
<path id="Vector_12" d="M66.1688 56.9233H20.873V87.5936H66.1688V56.9233Z" fill="#EBEBEB"/>
<path id="Vector_13" d="M66.1688 20.6611H20.873V56.9234H66.1688V20.6611Z" fill="white"/>
<path id="Vector_14" d="M66.1723 20.6628H64.5781V87.5932H66.1723V20.6628Z" fill="#E0E0E0"/>
<path id="Vector_15" d="M20.7266 56.9235V58.5413H64.7402V56.9235H20.7266Z" fill="#E0E0E0"/>
<path id="Vector_16" d="M66.1684 54.2087H20.0176V56.9235H66.1684V54.2087Z" fill="#F0F0F0"/>
<g id="Group_2">
<g id="Group_3">
<path id="Vector_17" d="M187.942 140.929H126.653C122.009 140.929 118.244 137.164 118.244 132.52V114.278C118.244 109.634 122.009 105.869 126.653 105.869H187.942C192.586 105.869 196.351 109.634 196.351 114.278V132.52C196.352 137.164 192.586 140.929 187.942 140.929Z" fill="#E0E0E0"/>
<path id="Vector_18" d="M183.827 141.188H122.538C117.894 141.188 114.129 137.423 114.129 132.779V114.537C114.129 109.893 117.894 106.128 122.538 106.128H183.827C188.472 106.128 192.236 109.893 192.236 114.537V132.779C192.236 137.423 188.471 141.188 183.827 141.188Z" fill="#F5F5F5"/>
<path id="Vector_19" d="M188.652 122.514H118.164V115.307C118.164 112.064 120.794 109.434 124.037 109.434H182.779C186.022 109.434 188.652 112.064 188.652 115.307V122.514Z" fill="#E0E0E0"/>
<path id="Vector_20" d="M182.779 137.364H124.037C120.794 137.364 118.164 134.734 118.164 131.49V124.284H188.652V131.49C188.652 134.734 186.022 137.364 182.779 137.364Z" fill="#E0E0E0"/>
<g id="Group_4">
<path id="Vector_21" d="M169.706 111.966H156.801V122.6H169.706V111.966Z" fill="#E6E6E6"/>
<path id="Vector_22" d="M156.796 111.966H153.49V122.6H156.796V111.966Z" fill="#F5F5F5"/>
<path id="Vector_23" d="M156.235 119.738C156.235 120.339 155.748 120.825 155.148 120.825C154.547 120.825 154.061 120.339 154.061 119.738C154.061 119.138 154.547 118.651 155.148 118.651C155.748 118.651 156.235 119.138 156.235 119.738Z" fill="#E0E0E0"/>
<path id="Vector_24" d="M173.085 110.326H163.391V122.6H173.085V110.326Z" fill="#E6E6E6"/>
<g id="Group_5">
<path id="Vector_25" d="M163.399 110.326H160.596V122.6H163.399V110.326Z" fill="#F5F5F5"/>
<path id="Vector_26" d="M161.996 113.07C162.526 113.07 162.956 112.64 162.956 112.109C162.956 111.579 162.526 111.149 161.996 111.149C161.465 111.149 161.035 111.579 161.035 112.109C161.035 112.64 161.465 113.07 161.996 113.07Z" fill="#E0E0E0"/>
</g>
<path id="Vector_27" d="M161.996 113.07C162.526 113.07 162.956 112.64 162.956 112.109C162.956 111.579 162.526 111.149 161.996 111.149C161.465 111.149 161.035 111.579 161.035 112.109C161.035 112.64 161.465 113.07 161.996 113.07Z" fill="#E0E0E0"/>
<path id="Vector_28" d="M174.42 111.966H166.246V122.6H174.42V111.966Z" fill="#EBEBEB"/>
<path id="Vector_29" d="M166.242 111.966H164.375V122.6H166.242V111.966Z" fill="#F5F5F5"/>
<path id="Vector_30" d="M183.66 113.765H172.939V122.6H183.66V113.765Z" fill="#E6E6E6"/>
<path id="Vector_31" d="M172.935 113.765H170.189V122.6H172.935V113.765Z" fill="#F5F5F5"/>
<path id="Vector_32" d="M186.47 112.403H178.416V122.6H186.47V112.403Z" fill="#E6E6E6"/>
<path id="Vector_33" d="M178.419 112.403H176.09V122.6H178.419V112.403Z" fill="#F5F5F5"/>
<path id="Vector_34" d="M188.618 113.765H180.795V122.6H188.618V113.765Z" fill="#E6E6E6"/>
<path id="Vector_35" d="M180.784 113.765H179.234V122.6H180.784V113.765Z" fill="#F0F0F0"/>
</g>
<g id="Group_6">
<path id="Vector_36" d="M138.855 126.326H128.865V136.961H138.855V126.326Z" fill="#E6E6E6"/>
<path id="Vector_37" d="M128.863 126.326H126.305V136.961H128.863V126.326Z" fill="#F5F5F5"/>
<path id="Vector_38" d="M141.473 124.687H133.969V136.961H141.473V124.687Z" fill="#E6E6E6"/>
<path id="Vector_39" d="M133.974 124.687H131.805V136.961H133.974V124.687Z" fill="#F5F5F5"/>
<path id="Vector_40" d="M172.935 126.326H162.945V136.961H172.935V126.326Z" fill="#E6E6E6"/>
<path id="Vector_41" d="M162.949 126.326H160.391V136.961H162.949V126.326Z" fill="#F5F5F5"/>
<path id="Vector_42" d="M175.553 124.687H168.049V136.961H175.553V124.687Z" fill="#E6E6E6"/>
<path id="Vector_43" d="M168.054 124.687H165.885V136.961H168.054V124.687Z" fill="#F5F5F5"/>
<path id="Vector_44" d="M142.507 126.326H136.18V136.961H142.507V126.326Z" fill="#EBEBEB"/>
<path id="Vector_45" d="M136.186 126.326H134.74V136.961H136.186V126.326Z" fill="#F5F5F5"/>
<path id="Vector_46" d="M149.658 128.126H141.359V136.961H149.658V128.126Z" fill="#E6E6E6"/>
<path id="Vector_47" d="M141.359 128.126H139.234V136.961H141.359V128.126Z" fill="#F5F5F5"/>
<path id="Vector_48" d="M151.828 126.763H145.594V136.961H151.828V126.763Z" fill="#E6E6E6"/>
<path id="Vector_49" d="M145.602 126.763H143.799V136.961H145.602V126.763Z" fill="#F5F5F5"/>
<path id="Vector_50" d="M153.491 128.126H147.436V136.961H153.491V128.126Z" fill="#E6E6E6"/>
<path id="Vector_51" d="M147.434 128.126H146.234V136.961H147.434V128.126Z" fill="#F0F0F0"/>
</g>
<g id="Group_7">
<g id="Group_8">
<g id="Group_9">
<g id="Group_10">
<path id="Vector_52" d="M146.147 95.675C145.934 95.2561 145.449 95.0137 145.007 95.106C144.565 95.1983 144.204 95.6182 144.158 96.091C143.846 95.8576 143.4 95.8456 143.077 96.0624C142.754 96.2791 142.574 96.7113 142.642 97.1094C142.29 96.8251 141.713 96.9426 141.486 97.3445C141.259 97.7468 141.435 98.3393 141.839 98.5317C141.564 98.5514 141.328 98.8259 141.335 99.1166C141.342 99.4077 141.592 99.6681 141.867 99.6728C141.589 99.6792 141.332 99.9242 141.299 100.217C141.265 100.509 141.458 100.812 141.727 100.889C141.444 101.014 141.373 101.479 141.603 101.693C141.834 101.907 142.261 101.771 142.341 101.459C142.385 101.549 142.518 101.571 142.584 101.497C142.651 101.424 142.625 101.285 142.538 101.243C142.665 101.422 142.99 101.339 143.026 101.118C142.93 101.63 143.542 102.112 143.979 101.869C143.853 102.084 144.031 102.382 144.261 102.449C144.491 102.515 144.734 102.421 144.95 102.314C145.167 102.208 145.387 102.083 145.626 102.087C145.835 102.09 146.03 102.19 146.231 102.255C146.867 102.459 147.602 102.265 148.073 101.768C148.403 102.212 149.187 102.093 149.385 101.568C149.436 101.82 149.659 102.021 149.902 102.035C150.145 102.05 150.387 101.876 150.464 101.632C150.469 101.744 150.474 101.856 150.479 101.968C150.938 102.077 151.39 101.485 151.194 101.034C151.521 101.04 151.831 100.757 151.873 100.414C151.915 100.071 151.684 99.7142 151.366 99.6313C151.905 99.48 152.317 98.9208 152.323 98.3308C152.329 97.7412 151.929 97.1726 151.393 97.0093C151.181 96.9448 150.933 96.9465 150.764 97.0953C150.596 97.244 150.573 97.5719 150.762 97.6916C150.924 97.1628 150.684 96.5292 150.221 96.2654C149.758 96.0017 149.125 96.1372 148.796 96.5711C148.957 96.3462 148.959 96.0106 148.803 95.7828C148.647 95.5549 148.345 95.4531 148.092 95.5438C148.03 95.1808 147.668 94.9064 147.323 94.9598C146.977 95.0132 146.705 95.386 146.743 95.7528C146.703 95.4463 146.227 95.3565 146.09 95.6297C145.896 95.5754 146.147 95.675 146.147 95.675Z" fill="#EBEBEB"/>
</g>
</g>
<g id="Group_11">
<g id="Group_12">
<path id="Vector_53" d="M146.283 99.0879C146.142 98.9895 145.963 98.9365 145.794 98.9703C145.626 99.0041 145.473 99.1345 145.438 99.3033C145.404 99.4722 145.508 99.665 145.676 99.7056C145.879 99.7548 146.083 99.5872 146.291 99.6163C146.365 99.627 146.433 99.662 146.505 99.6813C146.803 99.7608 147.099 99.5663 147.346 99.382C147.433 99.317 147.522 99.2503 147.581 99.1584C147.639 99.0669 147.66 98.9438 147.605 98.8497C147.529 98.7194 147.349 98.7001 147.198 98.7172C146.897 98.7518 146.606 98.8733 146.37 99.0635C146.378 99.0165 146.385 98.969 146.393 98.922L146.283 99.0879Z" fill="#FAFAFA"/>
</g>
<g id="Group_13">
<path id="Vector_54" d="M150.616 98.8318C150.535 98.7753 150.452 98.7176 150.356 98.695C150.26 98.6723 150.147 98.6928 150.086 98.7706C150.003 98.8771 150.056 99.0438 150.161 99.1285C150.267 99.2127 150.407 99.2362 150.541 99.2571C150.678 99.2785 150.851 99.2832 150.919 99.1622C150.969 99.0737 150.929 98.957 150.855 98.8878C150.781 98.8185 150.681 98.7856 150.585 98.7544L150.616 98.8318Z" fill="#FAFAFA"/>
</g>
<g id="Group_14">
<path id="Vector_55" d="M143.784 96.5788C143.508 96.6942 143.295 96.9495 143.231 97.2411C143.212 97.3291 143.214 97.4398 143.291 97.4869C143.346 97.5202 143.416 97.5065 143.478 97.4916C143.742 97.4287 144.007 97.3659 144.271 97.3035C144.144 97.3522 144.015 97.4027 143.913 97.4933C143.813 97.5835 143.745 97.7241 143.778 97.8558C143.816 98.0102 143.986 98.1051 144.145 98.1029C144.304 98.1008 144.452 98.0217 144.582 97.9285C144.72 97.8293 144.855 97.6921 144.857 97.5224C144.86 97.3526 144.646 97.1949 144.515 97.3039C144.818 97.2218 145.106 97.0901 145.367 96.9161C145.461 96.8533 145.553 96.7823 145.613 96.6857C145.672 96.5891 145.692 96.4617 145.638 96.3625C145.367 95.87 145.025 96.5925 144.858 96.6566C144.542 96.7785 144.185 96.4112 143.784 96.5788Z" fill="#FAFAFA"/>
<path id="Vector_56" d="M142.549 98.6808C142.521 98.777 142.54 98.8933 142.619 98.9557C142.697 99.0181 142.836 98.9972 142.872 98.9035C142.695 98.9587 142.506 99.0224 142.396 99.1716C142.285 99.3208 142.313 99.5812 142.489 99.6389C142.599 99.6748 142.716 99.6209 142.818 99.5653C143.105 99.4084 143.38 99.2276 143.637 99.0254C143.559 99.2071 143.748 99.4132 143.945 99.4303C144.142 99.4469 144.327 99.3405 144.496 99.2379C144.703 99.1118 144.941 98.9194 144.886 98.6825C144.839 98.4765 144.576 98.3854 144.373 98.4457C144.17 98.506 144.018 98.6693 143.876 98.8262C143.987 98.6641 143.829 98.4234 143.635 98.3974C143.445 98.3717 143.257 98.4871 143.139 98.6265C143.359 98.5055 143.408 98.19 143.113 98.1537C142.922 98.1293 142.595 98.5205 142.549 98.6808Z" fill="#FAFAFA"/>
<path id="Vector_57" d="M148.604 97.9729C148.437 97.9105 148.229 98.019 148.184 98.1909C148.139 98.3628 148.268 98.5594 148.444 98.5864C148.315 98.5975 148.191 98.662 148.108 98.7617C148.061 98.8168 148.026 98.8882 148.037 98.9596C148.052 99.0665 148.166 99.1366 148.274 99.1404C148.382 99.1443 148.484 99.0985 148.583 99.0541C148.476 99.0639 148.363 99.0763 148.279 99.1421C148.194 99.2076 148.158 99.3465 148.234 99.4217C148.297 99.4846 148.402 99.4743 148.488 99.45C148.681 99.3957 148.861 99.2948 149.007 99.1575C149.117 99.2794 149.28 99.3674 149.442 99.3409C149.604 99.3144 149.742 99.1421 149.691 98.9857C149.655 98.8741 149.539 98.804 149.422 98.7899C149.306 98.7758 149.189 98.8078 149.078 98.8437C149.192 98.7629 149.313 98.6723 149.355 98.5389C149.397 98.4055 149.306 98.2264 149.167 98.2371C149.01 98.2495 148.93 98.4628 148.806 98.5398C148.653 98.3961 148.939 98.0977 148.604 97.9729Z" fill="#FAFAFA"/>
<g id="Group_15">
<path id="Vector_58" d="M145.774 97.3205C145.596 97.4415 145.534 97.6796 145.546 97.8947C145.56 98.1319 145.668 98.3859 145.886 98.4812C146.173 98.6065 146.531 98.3679 146.583 98.0597C146.636 97.7514 146.434 97.4377 146.156 97.2931C146.157 97.2931 145.953 97.2 145.774 97.3205Z" fill="#FAFAFA"/>
</g>
<g id="Group_16">
<path id="Vector_59" d="M147.774 97.0643C147.799 97.0857 147.823 97.1066 147.848 97.128C147.727 96.9741 147.47 96.954 147.326 97.087C147.181 97.2199 147.18 97.4773 147.324 97.6111C147.467 97.7449 147.724 97.7265 147.847 97.5735C148.054 97.6697 148.327 97.6321 148.472 97.4563C148.618 97.2806 148.585 96.9745 148.386 96.8617C148.188 96.7492 147.886 96.9181 147.907 97.1451C147.878 97.113 147.85 97.081 147.821 97.0493L147.774 97.0643Z" fill="#FAFAFA"/>
</g>
<g id="Group_17">
<path id="Vector_60" d="M149.985 97.421C149.844 97.5604 149.696 97.7096 149.644 97.9016C149.592 98.0935 149.678 98.3376 149.87 98.3868C150.062 98.4355 150.244 98.2778 150.353 98.1128C150.451 97.964 150.527 97.7789 150.47 97.61C150.413 97.4407 150.17 97.3407 150.048 97.471L149.985 97.421Z" fill="#FAFAFA"/>
</g>
<path id="Vector_61" d="M146.803 96.2615C146.73 96.1007 146.502 96.0443 146.352 96.1375C146.202 96.2307 146.147 96.4406 146.213 96.6044C146.278 96.7681 146.446 96.8793 146.622 96.8985C146.839 96.9224 147.096 96.7467 147.047 96.5338C147.14 96.6574 147.308 96.7061 147.463 96.6912C147.617 96.6762 147.76 96.6061 147.895 96.5287C148.077 96.424 148.271 96.2615 148.252 96.052C148.237 95.8853 148.075 95.7566 147.908 95.7412C147.742 95.7258 147.577 95.8032 147.45 95.9122C147.349 95.9977 147.266 96.1033 147.158 96.1781C147.05 96.2529 146.902 96.2931 146.786 96.2307L146.803 96.2615Z" fill="#FAFAFA"/>
</g>
</g>
</g>
<g id="Group_18">
<path id="Vector_62" d="M149.519 105.983H144.044L143.508 100.465H150.055L149.519 105.983Z" fill="#F0F0F0"/>
<path id="Vector_63" d="M150.476 100.75H143.027L142.893 100.016H150.61L150.476 100.75Z" fill="#FAFAFA"/>
</g>
</g>
<g id="Group_19">
<g id="Group_20">
<path id="Vector_64" d="M143.829 122.588H137.545L139.514 116.243L139.802 115.316H141.224L143.829 122.588Z" fill="#EBEBEB"/>
<path id="Vector_65" d="M139.803 115.316L139.515 116.243L137.546 122.588L131.736 122.502L129.868 116.243L129.58 115.316H139.803Z" fill="#E0E0E0"/>
<path id="Vector_66" d="M139.799 115.316L139.511 116.243L137.542 122.588L125.609 122.411L128.152 115.316H139.799Z" fill="#FAFAFA"/>
<path id="Vector_67" d="M139.797 115.316L139.509 116.243H127.82L128.15 115.316H139.797Z" fill="#EBEBEB"/>
</g>
<g id="Group_21">
<g id="Group_22">
<path id="Vector_68" d="M129.626 119.257H127.006L127.92 116.677L130.426 116.704L129.626 119.257ZM127.309 119.044H129.469L130.136 116.915L128.07 116.892L127.309 119.044Z" fill="#EBEBEB"/>
</g>
<g id="Group_23">
<path id="Vector_69" d="M132.558 119.257H129.938L130.852 116.677L133.358 116.704L132.558 119.257ZM130.24 119.044H132.401L133.067 116.915L131.002 116.892L130.24 119.044Z" fill="#EBEBEB"/>
</g>
<g id="Group_24">
<path id="Vector_70" d="M135.495 119.257H132.875L133.789 116.677L136.296 116.704L135.495 119.257ZM133.178 119.044H135.338L136.005 116.915L133.94 116.892L133.178 119.044Z" fill="#EBEBEB"/>
</g>
<g id="Group_25">
<path id="Vector_71" d="M138.419 119.257H135.799L136.713 116.677L139.219 116.704L138.419 119.257ZM136.101 119.044H138.262L138.929 116.915L136.863 116.892L136.101 119.044Z" fill="#EBEBEB"/>
</g>
</g>
<g id="Group_26">
<g id="Group_27">
<path id="Vector_72" d="M128.708 121.996H126.088L127.002 119.415L129.508 119.443L128.708 121.996ZM126.391 121.782H128.551L129.218 119.653L127.152 119.63L126.391 121.782Z" fill="#EBEBEB"/>
</g>
<g id="Group_28">
<path id="Vector_73" d="M131.645 121.996H129.025L129.939 119.415L132.445 119.443L131.645 121.996ZM129.328 121.782H131.488L132.155 119.653L130.09 119.63L129.328 121.782Z" fill="#EBEBEB"/>
</g>
<g id="Group_29">
<path id="Vector_74" d="M134.569 121.996H131.949L132.864 119.415L135.37 119.443L134.569 121.996ZM132.251 121.782H134.412L135.079 119.653L133.013 119.63L132.251 121.782Z" fill="#EBEBEB"/>
</g>
<g id="Group_30">
<path id="Vector_75" d="M137.501 121.996H134.881L135.795 119.415L138.301 119.443L137.501 121.996ZM135.184 121.782H137.344L138.011 119.653L135.946 119.63L135.184 121.782Z" fill="#EBEBEB"/>
</g>
</g>
</g>
</g>
<g id="Group_31">
<g id="Group_32">
<path id="Vector_76" d="M177.27 102.561C177.27 103.908 177.481 104.779 177.837 105.338C178.104 105.759 178.585 105.995 179.084 105.995H181.034C181.533 105.995 182.014 105.759 182.281 105.338C182.637 104.779 182.849 103.908 182.849 102.561C182.849 100.607 181.997 99.0426 181.719 97.7934C181.619 97.3437 181.952 95.9653 181.952 95.9653H178.166C178.166 95.9653 178.5 97.3437 178.399 97.7934C178.121 99.0426 177.27 100.607 177.27 102.561Z" fill="#F0F0F0"/>
</g>
<g id="Group_33">
<g id="Group_34">
<g id="Group_35">
<g id="Group_36">
<path id="Vector_77" d="M181.329 86.5322C181.329 86.5322 180.69 86.6917 180.319 87.1868C179.947 87.6818 180.589 88.8477 180.589 88.8477C180.589 88.8477 181.196 89.4667 181.95 89.2825C182.704 89.0982 182.704 89.0982 182.704 89.0982C182.704 89.0982 181.906 86.8131 181.334 86.6836L181.329 86.5322Z" fill="#EBEBEB"/>
</g>
</g>
<g id="Group_37">
<g id="Group_38">
<path id="Vector_78" d="M184.309 87.0786C184.209 88.0721 183.37 89.1901 182.483 89.1007C181.596 89.0114 180.997 87.7481 181.097 86.7545C181.197 85.7609 181.919 85.799 182.806 85.8888C183.694 85.9781 184.409 86.085 184.309 87.0786Z" fill="#EBEBEB"/>
</g>
<g id="Group_39">
<path id="Vector_79" d="M181.813 86.3074C181.813 86.3074 182.38 86.9649 183.812 86.9145C183.812 86.9145 181.372 87.9499 181.813 86.3074Z" fill="#EBEBEB"/>
</g>
<g id="Group_40">
<path id="Vector_80" d="M182.434 86.2244C182.434 86.2244 183.228 86.2359 183.178 86.5591C183.178 86.5591 183.838 86.6464 183.799 86.3561C183.761 86.0658 182.434 86.2244 182.434 86.2244Z" fill="#EBEBEB"/>
</g>
<g id="Group_41">
<path id="Vector_81" d="M181.813 86.3074C181.813 86.3074 182.38 86.9649 183.812 86.9145C183.812 86.9145 181.372 87.9499 181.813 86.3074Z" fill="#E0E0E0"/>
</g>
<g id="Group_42">
<path id="Vector_82" d="M182.434 86.2244C182.434 86.2244 183.228 86.2359 183.178 86.5591C183.178 86.5591 183.838 86.6464 183.799 86.3561C183.761 86.0658 182.434 86.2244 182.434 86.2244Z" fill="#E0E0E0"/>
</g>
</g>
<g id="Group_43">
<path id="Vector_83" d="M180.959 89.1329C181.151 89.6357 181.674 89.9738 182.211 90.0106C182.748 90.0474 183.283 89.8084 183.667 89.4326C184.052 89.0564 184.297 88.554 184.43 88.0325C184.465 87.8974 184.54 87.5575 184.37 87.4711C184.214 87.3916 184.068 87.6032 183.971 87.6964C183.693 87.9645 183.404 88.2107 183.076 88.4164C182.757 88.6156 182.415 88.7781 182.059 88.899C181.96 88.9324 180.993 89.2218 180.959 89.1329Z" fill="#EBEBEB"/>
</g>
<g id="Group_44">
<path id="Vector_84" d="M185.067 87.889C185.157 88.3166 185.006 88.7868 184.684 89.0814C184.472 89.2751 184.201 89.3905 183.932 89.4905C183.745 89.5602 183.511 89.6154 183.366 89.4777C183.21 89.3294 183.276 89.0711 183.356 88.8715C183.479 88.5637 183.611 88.2593 183.751 87.9583C183.865 87.7116 183.987 87.2854 184.181 87.0943C184.363 86.9143 184.542 87.075 184.729 87.2661C184.896 87.4367 185.018 87.6543 185.067 87.889Z" fill="#EBEBEB"/>
</g>
<g id="Group_45">
<path id="Vector_85" d="M181.281 88.6334C180.946 88.5551 180.671 88.267 180.608 87.9293C180.561 87.6796 180.674 87.0905 180.989 87.0725C181.024 87.6219 181.049 88.1191 181.281 88.6334Z" fill="#E0E0E0"/>
</g>
<g id="Group_46">
<path id="Vector_86" d="M183.688 88.8078C184.023 88.777 184.337 88.5671 184.494 88.2692C184.58 88.1046 184.681 87.1982 184.345 87.5231C184.235 87.6296 184.177 88.0246 184.102 88.1747C183.989 88.4008 183.85 88.6142 183.688 88.8078Z" fill="#E0E0E0"/>
</g>
<g id="Group_47">
<path id="Vector_87" d="M182.36 89.1289C182.566 89.3845 182.958 89.4692 183.251 89.3217C183.185 89.488 182.613 89.5295 182.435 89.5474C181.971 89.5936 181.778 89.3567 181.385 89.0977C181.385 89.0977 182.041 89.3281 182.36 89.1289Z" fill="#E0E0E0"/>
</g>
</g>
<g id="Group_48">
<g id="Group_49">
<path id="Vector_88" d="M179.541 104.923L180.634 93.8817L182.082 89.9644L182.333 90.0571L180.892 93.957L179.75 105.225L179.541 104.923Z" fill="#E6E6E6"/>
</g>
</g>
<g id="Group_50">
<g id="Group_51">
<path id="Vector_89" d="M180.872 93.8588L180.633 93.9794C180.475 93.6677 180.355 93.277 180.214 92.8246C179.998 92.1252 179.752 91.3326 179.293 90.5853L179.521 90.4451C179.998 91.221 180.248 92.0307 180.47 92.7451C180.606 93.1863 180.724 93.5672 180.872 93.8588Z" fill="#E6E6E6"/>
</g>
<g id="Group_52">
<path id="Vector_90" d="M181.47 92.4113C181.842 92.3852 182.202 92.2193 182.464 91.9543C182.762 91.6533 182.922 91.2467 183.074 90.8521C182.589 90.9026 182.138 90.5862 181.651 90.5507C181.264 90.5225 180.866 90.6871 180.612 90.9813C180.282 91.3622 180.089 91.8286 180.272 92.0663C180.423 92.2621 180.973 92.4464 181.47 92.4113Z" fill="#F0F0F0"/>
</g>
<g id="Group_53">
<g id="Group_54">
<path id="Vector_91" d="M177.557 91.216C177.915 90.918 178.683 90.7979 179.118 90.9651C179.554 91.1322 179.879 91.5153 179.971 91.9146C179.798 92.1779 179.448 92.2793 179.135 92.2429C178.821 92.2066 178.534 92.0574 178.255 91.9112C177.976 91.7645 177.688 91.6153 177.375 91.579L177.557 91.216Z" fill="#F0F0F0"/>
</g>
</g>
<g id="Group_55">
<g id="Group_56">
<path id="Vector_92" d="M179.963 91.4259C179.329 91.4965 178.762 91.623 178.186 90.9022C177.8 90.4191 177.923 89.6889 177.951 89.1113C178.501 89.2319 179.748 89.8385 180.024 89.9873C180.301 90.1361 180.537 90.3776 180.582 90.6637C180.628 90.9497 180.434 91.2677 180.121 91.3203C180.111 91.3045 179.963 91.4259 179.963 91.4259Z" fill="#F0F0F0"/>
</g>
</g>
</g>
</g>
<path id="Vector_93" d="M178.148 100.015C177.894 100.734 177.652 101.516 177.735 102.28C177.751 102.425 177.796 102.591 177.901 102.617C177.998 102.641 178.095 102.521 178.13 102.389C178.164 102.257 178.155 102.116 178.155 101.978C178.152 100.794 178.796 99.7964 178.919 98.6412C178.953 98.3129 178.869 97.2761 178.676 98.038C178.505 98.7169 178.383 99.3522 178.148 100.015Z" fill="#FAFAFA"/>
</g>
</g>
</g>
<g id="Group_57">
<path id="Vector_94" d="M88.5825 123.54C88.5825 123.54 89.8253 109.77 84.3535 103.055C78.8812 96.3393 88.6257 102.453 90.3516 109.15C90.3516 109.15 90.6748 96.7638 85.2141 88.7367C79.7534 80.7095 89.0609 86.7171 90.6838 95.4718C90.6838 95.4718 90.9929 84.4187 88.2648 78.5583C85.5364 72.6978 89.606 76.1864 91.405 79.8494C93.204 83.5124 92.3092 93.2295 92.3092 93.2295C92.3092 93.2295 94.2219 75.2304 97.8507 76.2056C101.479 77.1808 93.9385 89.7341 93.3348 95.863C93.3348 95.863 96.6348 87.3143 99.9242 88.6131C103.213 89.9119 95.3454 91.7071 92.9158 104.153L92.2049 109.936C92.2049 109.936 95.1873 101.532 97.9148 103.74C100.642 105.947 91.2678 111.461 90.2032 123.779L88.5825 123.54Z" fill="#EBEBEB"/>
<path id="Vector_95" d="M89.1685 124.253C89.1685 124.253 88.0035 107.223 94.9353 99.1127C101.867 91.0022 89.6798 98.2333 87.3712 106.441C87.3712 106.441 87.3041 91.1471 94.2568 81.4181C101.21 71.6886 89.5644 78.8029 87.3276 89.5529C87.3276 89.5529 87.2421 75.9043 90.7653 68.7609C94.2885 61.617 89.1741 65.7909 86.8565 70.2529C84.5389 74.715 85.3828 86.7334 85.3828 86.7334C85.3828 86.7334 83.5043 64.4635 79.0008 65.5502C74.4973 66.637 83.4658 82.3684 84.0464 89.9501C84.0464 89.9501 80.2034 79.2958 76.1103 80.793C72.0173 82.2902 81.6771 84.7578 84.3422 100.192L85.0647 107.351C85.0647 107.351 81.6099 96.8866 78.1851 99.5227C74.7606 102.159 86.1801 109.262 87.1639 124.496L89.1685 124.253Z" fill="#F0F0F0"/>
<path id="Vector_96" d="M99.9458 132.744C99.9458 137.417 94.8797 141.209 88.6293 141.209C82.3747 141.209 77.3086 137.417 77.3086 132.744C77.3086 130.637 78.3346 128.717 80.0362 127.238L78.698 121.573H98.5563L97.2182 127.238C98.9197 128.717 99.9458 130.637 99.9458 132.744Z" fill="#EBEBEB"/>
</g>
</g>
<g id="Background_Simple">
<g id="Group_58">
<g id="Group_59">
<path id="Vector_97" d="M105.954 13.8468C99.7369 20.7534 96.6583 30.155 97.1837 39.433C97.7091 48.711 101.13 57.5923 105.292 65.9008C108.937 73.1767 113.294 81.4279 110.31 88.9988C108.642 93.2321 104.844 96.3663 100.641 98.1101C96.4385 99.854 91.8316 100.36 87.2871 100.587C79.5417 100.975 71.6783 100.619 64.1394 102.437C56.6005 104.256 49.1813 108.742 46.2669 115.929C42.8331 124.396 46.7308 134.531 53.6092 140.546C60.4875 146.561 69.7156 149.145 78.7636 150.42C91.4434 152.208 104.435 151.76 116.962 149.104C127.02 146.971 136.92 143.343 145.126 137.148C153.332 130.953 159.735 121.991 161.49 111.861C163.245 101.73 159.839 90.5242 151.81 84.1016C148.47 81.43 144.445 79.6024 141.515 76.4862C138.586 73.37 137.099 68.1777 139.819 64.8773C141.617 62.6969 144.64 62.0287 147.446 61.694C161.243 60.048 176.527 62.8915 188.065 55.1499C194.672 50.717 198.945 43.1597 199.886 35.2591C200.827 27.3586 199.122 18.8077 194.143 12.6014C180.582 -4.301 122.566 -4.60582 105.954 13.8468Z" fill="#23A455"/>
</g>
<g id="Group_60" opacity="0.9">
<path id="Vector_98" d="M105.954 13.8468C99.7369 20.7534 96.6583 30.155 97.1837 39.433C97.7091 48.711 101.13 57.5923 105.292 65.9008C108.937 73.1767 113.294 81.4279 110.31 88.9988C108.642 93.2321 104.844 96.3663 100.641 98.1101C96.4385 99.854 91.8316 100.36 87.2871 100.587C79.5417 100.975 71.6783 100.619 64.1394 102.437C56.6005 104.256 49.1813 108.742 46.2669 115.929C42.8331 124.396 46.7308 134.531 53.6092 140.546C60.4875 146.561 69.7156 149.145 78.7636 150.42C91.4434 152.208 104.435 151.76 116.962 149.104C127.02 146.971 136.92 143.343 145.126 137.148C153.332 130.953 159.735 121.991 161.49 111.861C163.245 101.73 159.839 90.5242 151.81 84.1016C148.47 81.43 144.445 79.6024 141.515 76.4862C138.586 73.37 137.099 68.1777 139.819 64.8773C141.617 62.6969 144.64 62.0287 147.446 61.694C161.243 60.048 176.527 62.8915 188.065 55.1499C194.672 50.717 198.945 43.1597 199.886 35.2591C200.827 27.3586 199.122 18.8077 194.143 12.6014C180.582 -4.301 122.566 -4.60582 105.954 13.8468Z" fill="white"/>
</g>
</g>
</g>
<g id="Shadow">
<path id="_x3C_Path_x3E__359_" d="M107.501 159.518C153.28 159.518 190.392 157.35 190.392 154.677C190.392 152.003 153.28 149.836 107.501 149.836C61.7211 149.836 24.6094 152.003 24.6094 154.677C24.6094 157.35 61.7211 159.518 107.501 159.518Z" fill="#F5F5F5"/>
</g>
<g id="Graphics">
<g id="Group_61">
<g id="Group_62">
<g id="Group_63">
<path id="Vector_99" d="M100.701 86.8339L101.767 80.6682L103.869 81.2762L100.701 86.8339Z" fill="#23A455"/>
</g>
<g id="Group_64">
<path id="Vector_100" d="M101.402 88.8061L107.414 87.0695L106.579 85.0474L101.402 88.8061Z" fill="#23A455"/>
</g>
<g id="Group_65">
<path id="Vector_101" d="M102.475 86.4882L105.898 80.0129L108.204 81.6153L102.475 86.4882Z" fill="#23A455"/>
</g>
</g>
<g id="Group_66">
<g id="Group_67">
<path id="Vector_102" d="M45.8959 96.2005H43.1884C43.0704 96.2005 42.9746 96.1047 42.9746 95.9867C42.9746 95.8687 43.0704 95.7729 43.1884 95.7729H45.8959C46.0138 95.7729 46.1096 95.8687 46.1096 95.9867C46.1096 96.1047 46.0138 96.2005 45.8959 96.2005Z" fill="#23A455"/>
</g>
<g id="Group_68">
<path id="Vector_103" d="M41.3869 96.2005H27.8251C27.7071 96.2005 27.6113 96.1047 27.6113 95.9867C27.6113 95.8687 27.7071 95.7729 27.8251 95.7729H41.3869C41.5049 95.7729 41.6006 95.8687 41.6006 95.9867C41.6006 96.1047 41.5049 96.2005 41.3869 96.2005Z" fill="#23A455"/>
</g>
</g>
<g id="Group_69">
<g id="Group_70">
<path id="Vector_104" d="M89.4775 120.939C89.4258 120.939 89.3736 120.921 89.3326 120.883C89.2458 120.803 89.2402 120.668 89.3202 120.581L90.5878 119.204C90.6677 119.117 90.8032 119.112 90.8896 119.191C90.9764 119.272 90.9819 119.407 90.902 119.494L89.6344 120.871C89.5929 120.916 89.5352 120.939 89.4775 120.939Z" fill="#23A455"/>
</g>
<g id="Group_71">
<path id="Vector_105" d="M77.8876 131.896C77.8094 131.896 77.7346 131.853 77.697 131.779C77.6435 131.674 77.6859 131.545 77.791 131.492C81.7528 129.486 88.0314 121.989 88.0947 121.913C88.1699 121.823 88.3046 121.81 88.3957 121.886C88.4863 121.962 88.4987 122.096 88.4226 122.187C88.1635 122.498 82.0239 129.827 77.9843 131.874C77.953 131.889 77.9201 131.896 77.8876 131.896Z" fill="#23A455"/>
</g>
</g>
</g>
</g>
<g id="Character">
<g id="Group_72">
<g id="Group_73">
<g id="_x3C_Group_x3E__1_">
<g id="Group_74">
<g id="Group_75">
<path id="Vector_106" d="M108.664 129.555L111.713 127.029L104.028 119.735L100.748 122.534L108.664 129.555Z" fill="#CB7A63"/>
<path id="Vector_107" d="M114.187 126.054C113.98 125.928 113.563 125.988 113.13 126.106C112.924 126.165 112.713 126.235 112.522 126.305C112.374 126.359 112.235 126.415 112.121 126.462C111.95 126.536 111.824 126.591 111.782 126.612C111.741 126.622 111.716 126.661 111.714 126.701C111.711 126.716 111.718 126.733 111.726 126.745C111.74 126.766 111.76 126.782 111.787 126.79C112.219 126.905 112.662 126.979 113.11 127.014C113.33 127.045 113.554 127.026 113.764 126.965C113.774 126.962 113.785 126.959 113.793 126.958C113.913 126.919 114.03 126.869 114.141 126.803C114.283 126.688 114.36 126.51 114.343 126.327C114.341 126.217 114.284 126.114 114.187 126.054ZM114.145 126.334C114.165 126.458 114.111 126.581 114.01 126.655C113.93 126.722 113.814 126.767 113.665 126.795C113.521 126.825 113.345 126.832 113.144 126.822C112.909 126.814 112.634 126.778 112.331 126.72C112.267 126.708 112.198 126.695 112.131 126.68C112.495 126.505 112.876 126.374 113.268 126.284C113.478 126.236 113.687 126.201 113.902 126.18C113.966 126.179 114.027 126.194 114.083 126.224C114.122 126.25 114.145 126.29 114.145 126.334Z" fill="#23A455"/>
<path id="Vector_108" d="M112.789 124.448C112.591 124.479 112.415 124.595 112.304 124.761C112.269 124.811 112.241 124.865 112.217 124.925C111.961 125.474 112.094 126.308 112.121 126.462C112.124 126.473 112.126 126.481 112.127 126.484C112.134 126.518 112.157 126.546 112.191 126.557C112.209 126.566 112.229 126.57 112.251 126.564C112.264 126.564 112.276 126.556 112.288 126.542C112.361 126.484 112.438 126.401 112.523 126.304C112.645 126.161 112.774 125.982 112.886 125.793C113.149 125.363 113.339 124.875 113.223 124.622C113.176 124.515 113.064 124.402 112.789 124.448ZM113.044 124.701C113.118 124.866 112.974 125.25 112.759 125.625C112.619 125.863 112.454 126.097 112.294 126.267C112.261 125.996 112.226 125.484 112.357 125.105C112.384 125.018 112.421 124.94 112.467 124.875C112.538 124.77 112.643 124.689 112.763 124.656L112.821 124.646C113.002 124.613 113.035 124.681 113.044 124.701Z" fill="#23A455"/>
<path id="Vector_109" d="M111.312 126.847L107.482 128.78C107.33 128.851 107.253 129.022 107.301 129.183L108.431 132.767C108.555 133.119 108.941 133.302 109.292 133.178C109.315 133.17 109.337 133.16 109.359 133.15C115.92 130.844 117.932 129.214 118.617 128.84C120.569 127.775 119.473 126.39 118.744 126.563C115.471 127.346 114.373 127.143 112.957 126.778C112.208 126.66 111.542 126.733 111.312 126.847Z" fill="#263238"/>
<path id="Vector_110" opacity="0.2" d="M104.029 119.739L107.92 123.188L104.639 125.987L100.748 122.537L104.029 119.739Z" fill="black"/>
<g id="Group_76">
<path id="Vector_111" d="M102.815 125.961L107.71 121.447L106.632 119.554L100.971 124.416L102.815 125.961Z" fill="#23A455"/>
<path id="Vector_112" opacity="0.5" d="M102.815 125.961L107.71 121.447L106.632 119.554L100.971 124.416L102.815 125.961Z" fill="white"/>
</g>
</g>
<g id="Group_77">
<g id="Group_78">
<g id="Group_79">
<g id="Group_80">
<g id="Group_81">
<path id="Vector_113" d="M105.842 120.218L105.187 120.782L104.206 121.624L103.622 122.122L101.915 123.589L101.588 123.868C101.588 123.868 94.6128 119.939 90.7331 116.585C88.0743 114.286 87.8362 113.43 87.5545 113.644C83.8047 116.497 72.7054 126.355 66.4157 131.485C66.2114 131.508 66.0079 131.526 65.8018 131.541C62.4415 131.787 59.7977 131.418 57.7482 130.636C57.7268 127.909 60.0611 121.54 60.2543 120.924C60.2543 120.924 69.5358 111.699 84.5729 103.902C84.7209 103.825 84.876 103.764 85.027 103.7C85.2228 103.614 85.4181 103.533 85.6161 103.462C86.4014 103.164 87.1731 102.978 87.9217 102.943C88.5933 102.907 89.2453 103.028 89.8763 103.25C90.2329 103.374 90.5809 103.529 90.919 103.709C91.2166 103.86 91.5073 104.033 91.7912 104.215C92.2563 104.511 92.7052 104.839 93.1315 105.166C94.0904 105.907 101.354 115.266 105.259 119.584C105.261 119.587 105.261 119.587 105.261 119.587C105.465 119.811 105.658 120.025 105.842 120.218Z" fill="#23A455"/>
</g>
</g>
</g>
</g>
<g id="Group_82" opacity="0.1">
<g id="Group_83">
<g id="Group_84">
<g id="Group_85">
<path id="Vector_114" d="M105.842 120.218L105.187 120.782L104.206 121.624L103.622 122.122L101.915 123.589L101.588 123.868C101.588 123.868 94.6128 119.939 90.7331 116.585C88.0743 114.286 87.8362 113.43 87.5545 113.644C83.8047 116.497 72.7054 126.355 66.4157 131.485C66.2114 131.508 66.0079 131.526 65.8018 131.541C62.4415 131.787 59.7977 131.418 57.7482 130.636C57.7268 127.909 60.0611 121.54 60.2543 120.924C60.2543 120.924 69.5358 111.699 84.5729 103.902C84.7209 103.825 84.876 103.764 85.027 103.7C85.2228 103.614 85.4181 103.533 85.6161 103.462C86.4014 103.164 87.1731 102.978 87.9217 102.943C88.5933 102.907 89.2453 103.028 89.8763 103.25C90.2329 103.374 90.5809 103.529 90.919 103.709C91.2166 103.86 91.5073 104.033 91.7912 104.215C92.2563 104.511 92.7052 104.839 93.1315 105.166C94.0904 105.907 101.354 115.266 105.259 119.584C105.261 119.587 105.261 119.587 105.261 119.587C105.465 119.811 105.658 120.025 105.842 120.218Z" fill="black"/>
</g>
</g>
</g>
</g>
</g>
</g>
<path id="Vector_115" d="M56.3379 80.8323C56.9245 83.4949 57.541 87.3802 55.7129 89.2091C57.9809 93.2013 60.7038 96.9169 63.8272 100.282C67.8327 93.318 64.0346 89.0137 64.0346 89.0137C61.0321 88.3712 61.0808 87.1613 61.5515 85.0771L56.3379 80.8323Z" fill="#CB7A63"/>
<path id="Vector_116" d="M53.8574 89.5473C54.0793 88.8261 54.5372 88.2002 55.1575 87.7705C55.7582 87.3105 61.9812 87.2417 63.5989 87.7718C64.5446 88.071 65.3483 88.7051 65.86 89.555L53.8574 89.5473Z" fill="#23A455"/>
<g id="Group_86">
<g id="Group_87">
<path id="Vector_117" d="M82.5661 100.149L84.1761 99.4146L84.2557 102.04C84.2557 102.04 83.5024 102.712 82.679 102.966C81.8889 103.21 81.1373 102.483 81.3318 101.68C81.4926 101.011 81.9462 100.448 82.5661 100.149Z" fill="#CB7A63"/>
<path id="Vector_118" d="M86.2374 100.156L86.1531 101.118C86.1296 101.415 85.9146 101.664 85.6234 101.73L84.2455 102.039L84.166 99.4138L85.5644 99.4343C85.9355 99.4292 86.2378 99.7263 86.2395 100.098C86.2399 100.117 86.2391 100.137 86.2374 100.156Z" fill="#CB7A63"/>
<path id="Vector_119" d="M62.13 107.617C64.5519 108.81 67.5159 109.494 70.4265 109.003C73.8556 108.425 79.8298 104.986 82.4269 103.011L81.5518 101.705C80.2543 101.982 69.6697 107.362 62.8328 102.496C61.5588 101.589 56.5551 97.8563 54.7869 97.9358C51.92 98.0654 52.1671 101.07 53.3992 102.32C54.8412 103.783 60.1497 106.641 62.13 107.617Z" fill="#CB7A63"/>
</g>
<g id="Group_88" opacity="0.2">
<path id="Vector_120" d="M86.1513 101.118C86.1265 101.414 85.9136 101.666 85.622 101.728L84.2557 102.037L84.2552 102.041C84.2552 102.041 83.5032 102.714 82.6802 102.967C82.593 102.993 82.5114 103.009 82.428 103.011L82.4242 103.014C79.8248 104.989 73.8554 108.425 70.4284 109.003C67.517 109.493 64.5513 108.811 62.1319 107.615C60.1508 106.64 54.8406 103.781 53.3977 102.32C52.1677 101.069 51.9202 98.0657 54.7863 97.934C56.5532 97.8575 61.5569 101.589 62.8339 102.497C69.3566 107.134 79.2832 102.459 81.3152 101.774C81.3203 101.743 81.325 101.711 81.3336 101.68C81.4148 101.346 81.5644 101.037 81.779 100.775C81.9859 100.515 82.2583 100.298 82.5669 100.148L84.1616 99.4192L84.177 99.4145L85.5643 99.4333C85.9332 99.4299 86.2368 99.7266 86.2364 100.099C86.2372 100.117 86.2381 100.135 86.2346 100.156L86.1513 101.118Z" fill="black"/>
<path id="Vector_121" d="M84.1755 99.415L84.1602 99.4197L84.1614 99.4128L84.1755 99.415Z" fill="black"/>
</g>
</g>
<g id="Group_89">
<path id="Vector_122" d="M71.1026 93.8449C74.7343 101.843 66.3148 104.129 70.1714 117.244L51.8723 117.684C51.995 110.655 54.4934 112.165 51.1998 98.949C50.921 97.8298 50.4572 94.6187 51.65 91.6945C52.1143 90.5568 52.9428 89.5902 54.024 89.0062C55.3754 88.276 61.326 88.8463 64.0421 89.0289C66.9821 88.6125 70.5664 92.8441 71.1026 93.8449Z" fill="#23A455"/>
<path id="Vector_123" opacity="0.5" d="M71.1026 93.8449C74.7343 101.843 66.3148 104.129 70.1714 117.244L51.8723 117.684C51.995 110.655 54.4934 112.165 51.1998 98.949C50.921 97.8298 50.4572 94.6187 51.65 91.6945C52.1143 90.5568 52.9428 89.5902 54.024 89.0062C55.3754 88.276 61.326 88.8463 64.0421 89.0289C66.9821 88.6125 70.5664 92.8441 71.1026 93.8449Z" fill="white"/>
</g>
<path id="Vector_124" d="M67.6048 77.9743C67.5518 78.3248 67.6958 78.6096 67.9143 78.6403C68.1328 78.6711 68.3525 78.4274 68.4029 78.0905C68.4534 77.7537 68.3119 77.4553 68.093 77.4245C67.875 77.3937 67.6539 77.6404 67.6048 77.9743Z" fill="#263238"/>
<path id="Vector_125" d="M67.9922 77.4288L68.8318 77.3125C68.8318 77.3125 68.3248 77.8837 67.9922 77.4288Z" fill="#263238"/>
<path id="Vector_126" d="M67.6558 78.4365C67.6558 78.4365 68.0141 79.9653 68.545 80.7498C68.0401 81.1 67.3125 80.7999 67.3125 80.7999L67.6558 78.4365Z" fill="#A02724"/>
<path id="Vector_127" d="M68.8143 75.6226C68.8801 75.5965 68.9272 75.538 68.9383 75.4678C68.9532 75.3588 68.8789 75.2575 68.7703 75.2395C68.1367 75.1288 67.4886 75.3327 67.0328 75.7868C66.952 75.8616 66.9469 75.9881 67.0217 76.0694C67.0965 76.1506 67.2231 76.1553 67.3043 76.0805C67.3137 76.0715 67.3223 76.0621 67.3299 76.0514C67.6968 75.7 68.2098 75.5452 68.7096 75.6359C68.745 75.6418 68.7814 75.6371 68.8143 75.6226Z" fill="#263238"/>
<path id="Vector_128" d="M56.5249 75.2057C56.1807 79.3723 55.943 81.1281 57.7198 83.5517C60.3952 87.1976 65.5968 86.7184 67.1735 82.7356C68.6023 79.1513 68.9289 72.9394 65.127 70.709C62.4174 69.1007 58.9173 69.9934 57.3089 72.703C56.857 73.4648 56.5881 74.3216 56.5249 75.2057Z" fill="#CB7A63"/>
<path id="Vector_129" d="M67.2726 82.483C66.9584 82.2167 66.7173 81.8657 66.5809 81.4642C66.5694 81.4198 66.5946 81.3727 66.6403 81.3578C66.6848 81.3462 66.7318 81.3715 66.7434 81.4159C66.8695 81.7618 67.0734 82.0649 67.3355 82.3082L67.2726 82.483Z" fill="#263238"/>
<g id="Group_90">
<path id="Vector_130" d="M53.5601 69.7852C51.9719 71.9386 51.249 72.4991 53.2151 78.2317C54.0056 80.5365 56.3018 83.5868 57.4177 83.8669C59.418 84.3696 61.3649 82.9657 62.8668 81.5514C64.1819 80.3133 65.4435 78.9713 66.2442 77.3527C67.045 75.7342 67.3395 73.7898 66.6782 72.1096C65.9595 70.2837 63.426 68.654 61.5283 68.2543C59.2958 67.7844 54.8808 67.9948 53.5601 69.7852Z" fill="#263238"/>
<g id="Group_91">
<g id="Group_92">
<path id="Vector_131" d="M66.0164 77.7102C66.0164 77.7102 66.5162 78.5712 65.8848 79.2117L65.8976 78.068L66.0164 77.7102Z" fill="#263238"/>
</g>
<g id="Group_93">
<path id="Vector_132" d="M66.0177 77.709C66.0177 77.709 66.2024 79.0275 65.0977 79.5191L65.6898 78.0976L66.0177 77.709Z" fill="#263238"/>
</g>
</g>
<g id="Group_94">
<path id="Vector_133" d="M58.6737 83.3826C58.6737 83.3826 57.4608 83.9319 57.6365 85.1286L58.5207 83.8674L58.6737 83.3826Z" fill="#263238"/>
</g>
<g id="Group_95">
<path id="Vector_134" d="M58.7244 83.4065C58.7244 83.4065 57.801 84.3658 58.4076 85.4124L58.762 83.9135L58.7244 83.4065Z" fill="#263238"/>
</g>
</g>
<path id="Vector_135" d="M67.6905 75.9882C68.1236 75.5419 68.561 75.09 68.8799 74.556C69.1988 74.022 69.3942 73.3902 69.2976 72.7758C69.1732 71.9815 68.5764 71.3244 67.8778 70.9264C67.1792 70.5283 66.3806 70.3488 65.5957 70.1744C65.2096 70.0884 64.7796 70.0089 64.4405 70.212C64.1131 70.4078 63.9711 70.822 63.9899 71.203C64.0092 71.5839 64.1601 71.9439 64.2986 72.2991C64.8415 73.689 65.1819 75.1143 65.4456 76.579C65.5786 77.3174 65.4773 77.8073 66.2049 77.5226C66.6957 77.3306 67.3165 76.3738 67.6905 75.9882Z" fill="#263238"/>
<path id="Vector_136" d="M61.9375 78.047C61.8926 79.0115 62.233 79.9542 62.8832 80.6677C63.7524 81.6104 64.8554 80.9943 65.1721 79.8217C65.4611 78.7708 65.3513 77.0137 64.2124 76.5067C63.0735 75.9996 61.9991 76.8722 61.9375 78.047Z" fill="#CB7A63"/>
<path id="Vector_137" d="M110.425 131.476L113.728 128.257L107.337 120.226L103.348 122.581L110.425 131.476Z" fill="#CB7A63"/>
<g id="Group_96">
<path id="Vector_138" d="M117.1 127.268C116.732 127.14 115.98 127.549 115.411 127.912C115.266 128.004 115.135 128.092 115.026 128.168L115.017 128.173C114.997 128.188 114.977 128.204 114.959 128.217C114.831 128.308 114.738 128.375 114.703 128.402C114.663 128.425 114.642 128.469 114.653 128.511C114.665 128.554 114.703 128.586 114.749 128.589C115.141 128.606 115.536 128.592 115.929 128.551C116.018 128.543 116.102 128.533 116.19 128.521C116.475 128.499 116.749 128.405 116.984 128.247C117.068 128.193 117.148 128.132 117.221 128.064C117.346 127.914 117.387 127.708 117.329 127.52C117.298 127.407 117.213 127.311 117.1 127.268ZM117.121 127.573C117.166 127.699 117.141 127.839 117.051 127.942C116.94 128.08 116.716 128.191 116.403 128.266C116.16 128.327 115.864 128.367 115.52 128.385C115.384 128.391 115.238 128.398 115.086 128.396C115.134 128.357 115.181 128.324 115.23 128.288C115.264 128.261 115.297 128.239 115.333 128.215C115.791 127.894 116.295 127.641 116.831 127.469C116.894 127.45 116.965 127.452 117.033 127.472C117.078 127.487 117.111 127.525 117.121 127.573Z" fill="#23A455"/>
<path id="Vector_139" d="M115.265 125.903C115.064 125.981 114.907 126.14 114.829 126.338C114.559 126.995 114.958 128.009 115.025 128.168C115.024 128.172 115.024 128.172 115.029 128.174C115.029 128.182 115.031 128.185 115.032 128.188C115.048 128.225 115.081 128.247 115.116 128.252C115.139 128.256 115.161 128.252 115.182 128.245C115.196 128.241 115.21 128.229 115.216 128.218C115.22 128.211 115.223 128.21 115.228 128.203C115.287 128.125 115.35 128.025 115.41 127.912C115.727 127.318 116.02 126.326 115.762 125.983C115.686 125.883 115.545 125.79 115.265 125.903ZM115.159 127.923C115.042 127.585 114.84 126.869 115.025 126.421C115.075 126.296 115.166 126.189 115.287 126.127L115.345 126.099C115.529 126.026 115.576 126.09 115.591 126.11C115.778 126.361 115.492 127.374 115.159 127.923Z" fill="#23A455"/>
</g>
<path id="Vector_140" opacity="0.2" d="M106.999 119.735L110.005 123.584L105.936 125.851L102.883 122.102L106.999 119.735Z" fill="black"/>
<path id="Vector_141" d="M51.703 116.286L51.2814 117.946C51.219 118.077 51.3759 118.201 51.5845 118.196L70.4279 117.75C70.5929 117.743 70.7268 117.66 70.7349 117.555L70.2633 115.815C70.2761 115.704 70.1265 115.61 69.947 115.614L52.0039 116.142C51.8855 116.134 51.7709 116.189 51.703 116.286Z" fill="#263238"/>
<path id="Vector_142" d="M68.4699 117.949L67.9752 118.001C67.8773 117.999 67.7948 117.971 67.7961 117.909L67.7871 115.766C67.7888 115.704 67.8666 115.645 67.9645 115.633L68.4592 115.577C68.5571 115.579 68.6396 115.607 68.6379 115.672L68.6469 117.812C68.646 117.877 68.5682 117.937 68.4699 117.949Z" fill="#23A455"/>
<g id="Group_97">
<path id="Vector_143" d="M61.7199 118.036L61.2253 118.088C61.1274 118.085 61.0483 118.058 61.0466 117.996L61.041 115.853C61.0427 115.791 61.1205 115.731 61.2184 115.72L61.7097 115.664C61.8076 115.666 61.8901 115.694 61.8884 115.759L61.8973 117.899C61.899 117.972 61.8182 118.024 61.7199 118.036Z" fill="#23A455"/>
<path id="Vector_144" d="M61.7199 118.036L61.2253 118.088C61.1274 118.085 61.0483 118.058 61.0466 117.996L61.041 115.853C61.0427 115.791 61.1205 115.731 61.2184 115.72L61.7097 115.664C61.8076 115.666 61.8901 115.694 61.8884 115.759L61.8973 117.899C61.899 117.972 61.8182 118.024 61.7199 118.036Z" fill="#23A455"/>
</g>
<path id="Vector_145" d="M109.532 121.457L108.698 121.928L108.694 121.931L107.261 122.741L105.973 123.461L105.969 123.465L104.649 124.21V124.214L104.143 124.499C104.143 124.499 104.029 124.417 103.825 124.267C103.746 124.214 103.657 124.15 103.554 124.071C103.24 123.835 102.802 123.507 102.291 123.101C102.291 123.101 102.291 123.101 102.291 123.097C99.6336 120.997 94.9001 116.865 93.491 113.11C92.5812 114.194 91.4898 115.557 90.2414 117.062C84.8658 123.547 76.5116 132.7 66.4666 133.892C66.2631 133.921 66.06 133.938 65.8531 133.956C62.4966 134.245 59.8499 133.91 57.7914 133.154C52.5799 131.245 51.128 126.665 51.4846 122.77V122.755C51.5166 120.932 51.8732 117.683 51.8732 117.683L70.8859 117.704C73.5647 114.451 78.9403 109.354 84.4374 106.14C84.5657 106.058 84.6978 105.983 84.8299 105.912C84.994 105.815 85.1582 105.726 85.3219 105.637C87.109 104.66 88.896 103.9 90.5907 103.49C90.9686 103.4 91.3397 103.322 91.7069 103.269C92.0921 103.208 92.4705 103.176 92.845 103.158V103.161C95.449 103.044 97.7106 104.01 99.2445 106.611L109.247 121.043L109.532 121.457Z" fill="#23A455"/>
<g id="Group_98">
<g id="Group_99">
<g id="Monitor_Screen_1_">
<g id="PC_1_">
<g id="Group_100">
<path id="Vector_146" d="M99.2574 101.7L78.2461 102.568L78.8613 89.2008L99.8722 88.3325L99.2574 101.7Z" fill="#23A455"/>
<path id="Vector_147" d="M99.0114 102.755L78.3067 103.61C77.7192 103.634 77.2652 103.176 77.2922 102.587L77.9035 89.3022C77.9304 88.7127 78.4289 88.2151 79.0159 88.1911L99.7207 87.3356C100.308 87.3113 100.762 87.7696 100.735 88.3591L100.124 101.643C100.097 102.233 99.5989 102.731 99.0114 102.755Z" fill="#263238"/>
<g id="Group_101">
<path id="Vector_148" d="M99.2633 101.7L78.252 102.568L78.8672 89.2008L99.8781 88.3325L99.2633 101.7Z" fill="#23A455"/>
<path id="Vector_149" opacity="0.9" d="M99.2633 101.7L78.252 102.568L78.8672 89.2008L99.8781 88.3325L99.2633 101.7Z" fill="white"/>
</g>
<g id="Group_102">
<path id="Vector_150" opacity="0.1" d="M86.3139 87.8969L82.8438 103.416L84.2246 103.359L87.6491 87.8418L86.3139 87.8969Z" fill="white"/>
<path id="Vector_151" opacity="0.1" d="M88.4483 87.8089L84.9785 103.328L87.7168 103.215L91.1412 87.6978L88.4483 87.8089Z" fill="white"/>
</g>
</g>
</g>
</g>
<path id="Vector_152" d="M92.4558 102.921L99.4479 102.725C99.5685 103.536 99.2218 103.841 98.7763 103.852L96.5399 103.909L95.0458 103.942L92.7248 104.008L78.3216 104.428L78.207 103.414L92.4558 102.921Z" fill="#23A455"/>
<g id="Group_103">
<path id="Vector_153" d="M92.4617 102.921L99.4538 102.725C99.5743 103.536 99.2276 103.841 98.7821 103.852L96.5458 103.909L95.0516 103.942L92.7306 104.008L74.9013 104.554C74.697 104.561 74.508 104.446 74.4199 104.261C74.26 103.926 74.4964 103.536 74.868 103.524L92.4617 102.921Z" fill="#23A455"/>
<path id="Vector_154" opacity="0.2" d="M92.4617 102.921L99.4538 102.725C99.5743 103.536 99.2276 103.841 98.7821 103.852L96.5458 103.909L95.0516 103.942L92.7306 104.008L74.9013 104.554C74.697 104.561 74.508 104.446 74.4199 104.261C74.26 103.926 74.4964 103.536 74.868 103.524L92.4617 102.921Z" fill="black"/>
</g>
</g>
<path id="Vector_155" opacity="0.2" d="M99.4444 102.725L99.4863 103.007C99.5513 103.445 99.2182 103.841 98.7728 103.852L96.5364 103.909L92.3848 104.058L92.4519 102.922L99.4444 102.725Z" fill="black"/>
</g>
<path id="Vector_156" opacity="0.2" d="M63.2147 94.2351C63.2147 94.2351 62.2254 96.2492 65.0787 101.568L66.2719 103.737C66.6652 104.452 69.2795 102.995 70.0597 101.653C70.0597 101.653 65.0582 98.6535 63.2147 94.2351Z" fill="black"/>
<g id="Group_104">
<path id="Vector_157" d="M87.3981 100.436L89.3877 99.8499L89.0684 102.922C89.0684 102.922 86.295 104.777 85.334 103.004L85.7205 102.013C86.0125 101.261 86.6289 100.681 87.3981 100.436Z" fill="#CB7A63"/>
<path id="Vector_158" d="M91.6679 101.058L91.4186 102.165C91.3447 102.508 91.0552 102.761 90.706 102.789L89.0527 102.919L89.3721 99.8472L90.9975 100.105C91.4302 100.161 91.7359 100.558 91.6794 100.991C91.6764 101.013 91.6726 101.036 91.6679 101.058Z" fill="#CB7A63"/>
<path id="Vector_159" d="M70.8469 105.632C72.2334 107.512 74.1829 109.083 76.4761 109.532C79.1771 110.06 84.3749 106.239 86.8156 103.765C86.6925 102.721 86.7626 102.158 85.7216 102.013C85.7216 102.013 83.0394 103.979 77.9792 105.159C76.3453 105.541 75.2551 103.869 73.8293 101.437C73.1183 100.225 70.8183 95.2488 69.9521 94.142C68.5605 92.3631 64.5991 93.6392 66.1716 97.917C66.8334 99.7173 69.7131 104.094 70.8469 105.632Z" fill="#CB7A63"/>
</g>
<g id="Group_105">
<path id="Vector_160" d="M69.3595 91.2309C72.1717 93.8123 73.5389 98.3786 73.5389 98.3786L66.9744 102.38C66.9744 102.38 62.172 95.6446 63.0305 93.2971C63.7064 91.4737 64.9586 90.2805 66.6033 90.1775C67.6229 90.1134 68.6066 90.5396 69.3595 91.2309Z" fill="#23A455"/>
</g>
<path id="Vector_161" d="M54.3065 118.295L53.8089 118.307C53.7114 118.296 53.6319 118.261 53.6391 118.197L53.82 116.064C53.8277 115.999 53.9102 115.947 54.0089 115.944L54.5066 115.932C54.6036 115.943 54.6831 115.981 54.6763 116.042L54.495 118.178C54.4878 118.243 54.404 118.307 54.3065 118.295Z" fill="#23A455"/>
<g id="Group_106">
<path id="Vector_162" d="M103.329 125.409L109.727 122.21L109.18 119.935L101.887 123.264L103.329 125.409Z" fill="#23A455"/>
<path id="Vector_163" opacity="0.5" d="M103.329 125.409L109.727 122.21L109.18 119.935L101.887 123.264L103.329 125.409Z" fill="white"/>
</g>
<path id="Vector_164" d="M113.466 127.907L109.055 129.243C108.882 129.29 108.768 129.458 108.79 129.636L109.321 133.639C109.388 134.034 109.762 134.3 110.157 134.233C110.183 134.229 110.208 134.223 110.233 134.216C117.603 132.989 120.034 131.637 120.828 131.368C123.092 130.602 122.187 128.933 121.384 128.981C117.775 129.205 116.651 128.786 115.22 128.138C114.449 127.875 113.731 127.829 113.466 127.907Z" fill="#263238"/>
</g>
<g id="Group_107">
<path id="Vector_165" d="M54.1348 75.1574C52.8103 75.366 51.497 74.3494 51.0823 73.0741C50.6676 71.7988 51.0109 70.3747 51.6907 69.2192C52.193 68.3658 55.4708 66.3368 56.6867 68.6198C59.1064 73.1618 54.1348 75.1574 54.1348 75.1574Z" fill="#263238"/>
</g>
</g>
<g id="Group_108">
<g id="Group_109">
<g id="Group_110">
<path id="Vector_166" d="M99.077 92.9151L86.1445 93.4649L86.2018 92.1823L99.1343 91.6321L99.077 92.9151Z" fill="#23A455"/>
</g>
<g id="Group_111" opacity="0.7">
<path id="Vector_167" d="M99.077 92.9151L86.1445 93.4649L86.2018 92.1823L99.1343 91.6321L99.077 92.9151Z" fill="white"/>
</g>
</g>
<g id="Group_112">
<g id="Group_113">
<path id="Vector_168" d="M99.0008 94.6958L86.0684 95.246L86.1256 93.9631L99.0581 93.4128L99.0008 94.6958Z" fill="#23A455"/>
</g>
<g id="Group_114" opacity="0.7">
<path id="Vector_169" d="M99.0008 94.6958L86.0684 95.246L86.1256 93.9631L99.0581 93.4128L99.0008 94.6958Z" fill="white"/>
</g>
</g>
<g id="Group_115">
<g id="Group_116">
<path id="Vector_170" d="M98.9032 96.4764L85.9707 97.0266L86.0284 95.7441L98.9605 95.1938L98.9032 96.4764Z" fill="#23A455"/>
</g>
<g id="Group_117" opacity="0.7">
<path id="Vector_171" d="M98.9032 96.4764L85.9707 97.0266L86.0284 95.7441L98.9605 95.1938L98.9032 96.4764Z" fill="white"/>
</g>
</g>
<g id="Group_118">
<g id="Group_119">
<path id="Vector_172" d="M98.8344 98.2576L85.9023 98.8078L85.9596 97.5248L98.8921 96.9746L98.8344 98.2576Z" fill="#23A455"/>
</g>
<g id="Group_120" opacity="0.7">
<path id="Vector_173" d="M98.8344 98.2576L85.9023 98.8078L85.9596 97.5248L98.8921 96.9746L98.8344 98.2576Z" fill="white"/>
</g>
</g>
<g id="Group_121">
<g id="Group_122">
<path id="Vector_174" d="M98.743 100.038L85.8105 100.588L85.8678 99.3053L98.8003 98.7551L98.743 100.038Z" fill="#23A455"/>
</g>
<g id="Group_123" opacity="0.7">
<path id="Vector_175" d="M98.743 100.038L85.8105 100.588L85.8678 99.3053L98.8003 98.7551L98.743 100.038Z" fill="white"/>
</g>
</g>
<g id="Group_124">
<g id="Group_125">
<g id="Group_126">
<path id="Vector_176" d="M80.916 94.1851L79.8789 94.2297L79.8973 94.6573L80.9344 94.6127L80.916 94.1851Z" fill="#23A455"/>
</g>
</g>
<g id="Group_127" opacity="0.5">
<path id="Vector_177" d="M80.9179 94.1851L79.8809 94.2297L79.8993 94.6573L80.9363 94.6127L80.9179 94.1851Z" fill="white"/>
</g>
</g>
<g id="Group_128">
<g id="Group_129">
<g id="Group_130">
<path id="Vector_178" d="M80.8676 95.4185L79.8301 95.4631L79.8485 95.8907L80.886 95.846L80.8676 95.4185Z" fill="#23A455"/>
</g>
</g>
<g id="Group_131" opacity="0.5">
<path id="Vector_179" d="M80.8676 95.4185L79.8301 95.4631L79.8485 95.8907L80.886 95.846L80.8676 95.4185Z" fill="white"/>
</g>
</g>
<g id="Group_132">
<g id="Group_133">
<g id="Group_134">
<path id="Vector_180" d="M80.8125 96.6513L79.7754 96.6958L79.7937 97.1234L80.8308 97.0788L80.8125 96.6513Z" fill="#23A455"/>
</g>
</g>
<g id="Group_135" opacity="0.5">
<path id="Vector_181" d="M80.8144 96.6513L79.7773 96.6958L79.7957 97.1234L80.8328 97.0788L80.8144 96.6513Z" fill="white"/>
</g>
</g>
<g id="Group_136">
<g id="Group_137">
<g id="Group_138">
<path id="Vector_182" d="M80.7636 97.8853L79.7266 97.9299L79.745 98.3575L80.782 98.3129L80.7636 97.8853Z" fill="#23A455"/>
</g>
</g>
<g id="Group_139" opacity="0.5">
<path id="Vector_183" d="M80.7636 97.8853L79.7266 97.9299L79.745 98.3575L80.782 98.3129L80.7636 97.8853Z" fill="white"/>
</g>
</g>
<g id="Group_140">
<g id="Group_141">
<g id="Group_142">
<path id="Vector_184" d="M80.7168 99.1178L79.6797 99.1624L79.698 99.5899L80.7351 99.5454L80.7168 99.1178Z" fill="#23A455"/>
</g>
</g>
<g id="Group_143" opacity="0.5">
<path id="Vector_185" d="M79.6992 99.591L79.7385 99.1609L80.7753 99.1165L80.7364 99.5465L79.6992 99.591Z" fill="white"/>
</g>
</g>
<g id="Group_144">
<g id="Group_145">
<g id="Group_146">
<path id="Vector_186" d="M80.6703 100.348L79.6328 100.392L79.6508 100.819L80.6883 100.776L80.6703 100.348Z" fill="#23A455"/>
</g>
</g>
<g id="Group_147" opacity="0.5">
<path id="Vector_187" d="M80.6684 100.348L79.6309 100.392L79.6489 100.819L80.6864 100.776L80.6684 100.348Z" fill="white"/>
</g>
</g>
<g id="Group_148">
<path id="Vector_188" d="M81.9988 93.0054L79.8535 93.8031L79.877 93.2397L81.0647 93.0481L79.8881 92.9661L79.9112 92.4026L81.9988 93.0054Z" fill="#23A455"/>
</g>
<g id="Group_149">
<g id="Group_150">
<path id="Vector_189" d="M95.1054 90.9657L86.1445 91.3471L86.1843 90.4583L95.1451 90.0769L95.1054 90.9657Z" fill="#23A455"/>
</g>
<g id="Group_151" opacity="0.7">
<path id="Vector_190" d="M95.1054 90.9657L86.1445 91.3471L86.1843 90.4583L95.1451 90.0769L95.1054 90.9657Z" fill="white"/>
</g>
</g>
<g id="Group_152">
<g id="Group_153">
<path id="Vector_191" d="M82.9993 91.4254L81.6855 91.4844L82.2165 91.1462L82.3619 91.28L82.5192 91.1423L82.9993 91.4254Z" fill="#23A455"/>
</g>
<g id="Group_154">
<path id="Vector_192" d="M82.1677 91.1051L81.6367 91.4433L81.676 90.6609L82.1677 91.1051Z" fill="#23A455"/>
</g>
<g id="Group_155">
<path id="Vector_193" d="M83.0893 90.6357L83.0461 91.3792L82.5664 91.0962L83.0893 90.6357Z" fill="#23A455"/>
</g>
<g id="Group_156">
<path id="Vector_194" d="M82.3875 90.9638L82.3574 90.9956L82.3616 90.9996L82.3917 90.9677L82.3875 90.9638Z" fill="white"/>
</g>
<g id="Group_157">
<path id="Vector_195" d="M82.3616 90.9741L82.3574 90.978L82.3875 91.0098L82.3917 91.0059L82.3616 90.9741Z" fill="white"/>
</g>
<g id="Group_158">
<path id="Vector_196" d="M83.0818 90.5623L82.5192 91.0749L82.3619 91.2125L82.2165 91.0791L81.7249 90.6345L81.6855 90.599L83.0818 90.5623Z" fill="#23A455"/>
</g>
</g>
<g id="Group_159">
<g id="Group_160">
<g id="Group_161">
<path id="Vector_197" d="M80.932 90.7015L79.8945 90.7456L79.9 90.8733L80.9375 90.8292L80.932 90.7015Z" fill="#23A455"/>
</g>
</g>
<g id="Group_162">
<g id="Group_163">
<path id="Vector_198" d="M80.932 91.0274L79.8945 91.0715L79.9 91.1992L80.9375 91.1551L80.932 91.0274Z" fill="#23A455"/>
</g>
</g>
<g id="Group_164">
<g id="Group_165">
<path id="Vector_199" d="M80.932 91.3555L79.8945 91.3997L79.9 91.5274L80.9375 91.4832L80.932 91.3555Z" fill="#23A455"/>
</g>
</g>
</g>
</g>
</g>
</g>
<g id="Files">
<g id="Group_166">
<g id="Group_167">
<g id="Group_168">
<g id="Group_169">
<path id="Vector_200" d="M141.127 26.4142H134.9C134.335 26.4142 133.877 25.9563 133.877 25.3915C133.877 24.8268 134.335 24.3689 134.9 24.3689H141.127C141.692 24.3689 142.149 24.8268 142.149 25.3915C142.149 25.9563 141.692 26.4142 141.127 26.4142Z" fill="#23A455"/>
</g>
<g id="Group_170" opacity="0.7">
<path id="Vector_201" d="M141.127 26.4142H134.9C134.335 26.4142 133.877 25.9563 133.877 25.3915C133.877 24.8268 134.335 24.3689 134.9 24.3689H141.127C141.692 24.3689 142.149 24.8268 142.149 25.3915C142.149 25.9563 141.692 26.4142 141.127 26.4142Z" fill="white"/>
</g>
</g>
<g id="Group_171">
<g id="Group_172">
<g id="Group_173">
<g id="Group_174">
<path id="Vector_202" d="M163.965 47.4101L140.086 91.3583C139.779 91.9244 139.071 92.1338 138.505 91.8265L97.8675 69.7463C97.3014 69.4389 97.0919 68.731 97.3997 68.1649L128.459 11.0012C128.767 10.4352 129.475 10.2257 130.041 10.5335L157.422 25.4108L163.965 47.4101Z" fill="#23A455"/>
</g>
<g id="Group_175" opacity="0.2">
<path id="Vector_203" d="M163.965 47.4101L140.086 91.3583C139.779 91.9244 139.071 92.1338 138.505 91.8265L97.8675 69.7463C97.3014 69.4389 97.0919 68.731 97.3997 68.1649L128.459 11.0012C128.767 10.4352 129.475 10.2257 130.041 10.5335L157.422 25.4108L163.965 47.4101Z" fill="white"/>
</g>
<path id="Vector_204" d="M150.571 57.2736L120.223 40.9014L119.207 42.7834L149.555 59.1557L150.571 57.2736Z" fill="#23A455"/>
<path id="Vector_205" d="M146.422 64.9614L116.074 48.5891L115.059 50.4715L145.407 66.8438L146.422 64.9614Z" fill="#23A455"/>
<path id="Vector_206" d="M142.276 72.6489L111.928 56.2766L110.912 58.159L141.26 74.5313L142.276 72.6489Z" fill="#23A455"/>
<path id="Vector_207" d="M157.468 25.3916L150.265 38.6477C149.957 39.2138 150.167 39.9217 150.732 40.2291L163.948 47.4097L157.468 25.3916Z" fill="#23A455"/>
<path id="Vector_208" opacity="0.7" d="M157.468 25.3916L150.265 38.6477C149.957 39.2138 150.167 39.9217 150.732 40.2291L163.948 47.4097L157.468 25.3916Z" fill="white"/>
</g>
<g id="Group_176">
<g id="Group_177">
<path id="Vector_209" d="M170.202 45.9326L146.323 89.8808C146.015 90.4468 145.307 90.6563 144.741 90.3489L104.104 68.2688C103.538 67.9614 103.328 67.2534 103.636 66.6874L134.696 9.5237C135.003 8.95766 135.711 8.74818 136.277 9.05599L163.658 23.9333L170.202 45.9326Z" fill="#23A455"/>
</g>
<g id="Group_178" opacity="0.5">
<path id="Vector_210" d="M170.202 45.9326L146.323 89.8808C146.015 90.4468 145.307 90.6563 144.741 90.3489L104.104 68.2688C103.538 67.9614 103.328 67.2534 103.636 66.6874L134.696 9.5237C135.003 8.95766 135.711 8.74818 136.277 9.05599L163.658 23.9333L170.202 45.9326Z" fill="white"/>
</g>
<path id="Vector_211" d="M155.991 55.3573L127.262 39.8592C126.815 39.6181 126.257 39.7848 126.016 40.232L125.874 40.4945C125.633 40.9417 125.8 41.5001 126.247 41.7412L154.975 57.2392C155.422 57.4803 155.981 57.3136 156.222 56.8664L156.364 56.6039C156.605 56.1567 156.438 55.5988 155.991 55.3573Z" fill="#23A455"/>
<path id="Vector_212" d="M151.852 63.045L123.124 47.547C122.677 47.3059 122.118 47.4726 121.877 47.9198L121.736 48.1823C121.494 48.6295 121.661 49.1878 122.108 49.4289L150.837 64.9269C151.284 65.1681 151.842 65.0013 152.084 64.5542L152.225 64.2916C152.467 63.8445 152.3 63.2866 151.852 63.045Z" fill="#23A455"/>
<path id="Vector_213" d="M147.702 70.7325L118.973 55.2345C118.526 54.9934 117.968 55.1601 117.727 55.6073L117.585 55.8698C117.344 56.317 117.511 56.8753 117.958 57.1164L146.686 72.6144C147.134 72.8556 147.692 72.6888 147.933 72.2417L148.075 71.9792C148.316 71.532 148.149 70.9741 147.702 70.7325Z" fill="#23A455"/>
<path id="Vector_214" d="M163.698 23.9141L156.495 37.1702C156.188 37.7362 156.397 38.4442 156.963 38.7516L170.179 45.9322L163.698 23.9141Z" fill="#23A455"/>
<path id="Vector_215" opacity="0.7" d="M163.698 23.9141L156.495 37.1702C156.188 37.7362 156.397 38.4442 156.963 38.7516L170.179 45.9322L163.698 23.9141Z" fill="white"/>
</g>
</g>
</g>
</g>
<path id="Vector_216" d="M162.065 3.76367L164.073 12.6856C156.462 14.7757 149.636 22.3065 144.722 29.4226C142.783 32.2301 141.143 35.4955 139.916 38.9443C139.916 38.9443 155.261 25.0649 163.721 24.2504L163.318 38.999C163.318 38.999 172.092 21.9093 189.131 15.6547C189.131 15.6547 174.859 5.37756 162.065 3.76367Z" fill="#23A455"/>
</g>
</g>
<g id="Couch">
<g id="Group_179">
<g id="Group_180">
<g id="Group_181">
<g id="Group_182">
<path id="Vector_217" d="M58.5538 101.241L62.4314 145.564H56.1824L52.0098 97.8687H54.8733C56.789 97.8687 58.3871 99.3329 58.5538 101.241Z" fill="#23A455"/>
<path id="Vector_218" opacity="0.2" d="M58.5889 101.642L62.4314 145.564H56.1824L52.0098 97.8687H54.4719C56.6146 97.8687 58.402 99.5065 58.5889 101.642Z" fill="black"/>
</g>
<g id="Group_183">
<path id="Vector_219" d="M54.4889 100.756L58.4092 145.564H21.1988L17.3267 101.308C17.1651 99.459 18.6221 97.8687 20.478 97.8687H51.3381C52.978 97.8687 54.3461 99.1221 54.4889 100.756Z" fill="#23A455"/>
<path id="Vector_220" opacity="0.2" d="M54.5278 101.244L58.4054 145.564H21.1949L17.3737 101.888C17.1848 99.7271 18.8876 97.8687 21.0568 97.8687H50.8451C52.7617 97.8687 54.3606 99.3338 54.5278 101.244Z" fill="white"/>
</g>
</g>
<g id="Group_184">
<g id="Group_185">
<path id="Vector_221" d="M119.976 145.564H21.3682L20.293 133.274H114.948C117.131 133.274 119.056 135.044 119.247 137.227L119.976 145.564Z" fill="#23A455"/>
<path id="Vector_222" opacity="0.2" d="M119.976 145.564H21.3682L20.293 133.274H114.948C117.131 133.274 119.056 135.044 119.247 137.227L119.976 145.564Z" fill="white"/>
</g>
</g>
<path id="Vector_223" d="M124.493 150.27H20.2051C18.8524 150.27 17.7559 149.174 17.7559 147.821C17.7559 146.468 18.8524 145.372 20.2051 145.372H124.493C125.845 145.372 126.942 146.468 126.942 147.821C126.942 149.174 125.846 150.27 124.493 150.27Z" fill="#23A455"/>
<path id="Vector_224" opacity="0.2" d="M124.496 150.27H63.9551C62.6024 150.27 61.5059 149.174 61.5059 147.821C61.5059 146.468 62.6024 145.372 63.9551 145.372H124.495C125.848 145.372 126.945 146.468 126.945 147.821C126.945 149.174 125.848 150.27 124.496 150.27Z" fill="black"/>
</g>
<g id="Group_186">
<g id="Group_187">
<path id="Vector_225" d="M21.5703 150.27L22.8063 154.476H25.2782L26.6377 150.27H21.5703Z" fill="#263238"/>
<path id="Vector_226" opacity="0.5" d="M21.5703 150.27L22.8063 154.476H25.2782L26.6377 150.27H21.5703Z" fill="white"/>
</g>
<g id="Group_188">
<path id="Vector_227" d="M56.9922 150.27L58.2286 154.476H60.7005L62.06 150.27H56.9922Z" fill="#263238"/>
<path id="Vector_228" opacity="0.5" d="M56.9922 150.27L58.2286 154.476H60.7005L62.06 150.27H56.9922Z" fill="white"/>
</g>
<g id="Group_189">
<path id="Vector_229" d="M84.0977 150.27L85.3336 154.476H87.8055L89.165 150.27H84.0977Z" fill="#263238"/>
<path id="Vector_230" opacity="0.5" d="M84.0977 150.27L85.3336 154.476H87.8055L89.165 150.27H84.0977Z" fill="white"/>
</g>
<g id="Group_190">
<path id="Vector_231" d="M119.506 150.27L120.742 154.476H123.214L124.573 150.27H119.506Z" fill="#263238"/>
<path id="Vector_232" opacity="0.5" d="M119.506 150.27L120.742 154.476H123.214L124.573 150.27H119.506Z" fill="white"/>
</g>
</g>
</g>
</g>
</g>
<defs>
<clipPath id="clip0_731_2195">
<rect width="213.76" height="160" fill="white" transform="translate(0.619141)"/>
</clipPath>
</defs>
</svg>
