<svg width="169" height="169" viewBox="0 0 169 169" fill="none" xmlns="http://www.w3.org/2000/svg">
<g id="7070650_3293458 1">
<g id="Background_Complete">
<g id="Group">
<path id="Vector" d="M169 129.25H0V129.335H169V129.25Z" fill="#EBEBEB"/>
<path id="Vector_2" d="M30.2484 131.552H17.7285V131.637H30.2484V131.552Z" fill="#EBEBEB"/>
<path id="Vector_3" d="M81.121 133.381H57.123V133.466H81.121V133.381Z" fill="#EBEBEB"/>
<path id="Vector_4" d="M49.2339 131.594H32.0801V131.679H49.2339V131.594Z" fill="#EBEBEB"/>
<path id="Vector_5" d="M153.942 134.123H137.492V134.208H153.942V134.123Z" fill="#EBEBEB"/>
<path id="Vector_6" d="M135.988 134.123H125.182V134.208H135.988V134.123Z" fill="#EBEBEB"/>
<path id="Vector_7" d="M114.656 132.696H93.6973V132.781H114.656V132.696Z" fill="#EBEBEB"/>
<path id="Vector_8" d="M80.1089 114.176H14.8414C13.7777 114.176 12.9121 113.311 12.9121 112.247V20.503C12.9121 19.4393 13.7777 18.5737 14.8414 18.5737H80.1089C81.1722 18.5737 82.0378 19.4393 82.0378 20.503V112.247C82.0378 113.311 81.1722 114.176 80.1089 114.176ZM14.8414 18.6586C13.824 18.6586 12.9966 19.486 12.9966 20.5034V112.247C12.9966 113.265 13.824 114.092 14.8414 114.092H80.1089C81.1259 114.092 81.9533 113.265 81.9533 112.247V20.503C81.9533 19.486 81.1259 18.6582 80.1089 18.6582L14.8414 18.6586Z" fill="#EBEBEB"/>
<path id="Vector_9" d="M153.22 114.176H87.9524C86.8887 114.176 86.0234 113.311 86.0234 112.247V20.503C86.0234 19.4393 86.8891 18.5737 87.9524 18.5737H153.22C154.284 18.5737 155.149 19.4393 155.149 20.503V112.247C155.149 113.311 154.284 114.176 153.22 114.176ZM87.9524 18.6586C86.9354 18.6586 86.1079 19.486 86.1079 20.5034V112.247C86.1079 113.265 86.9354 114.092 87.9524 114.092H153.22C154.237 114.092 155.064 113.265 155.064 112.247V20.503C155.064 19.486 154.237 18.6582 153.22 18.6582L87.9524 18.6586Z" fill="#EBEBEB"/>
</g>
<g id="Group_2">
<g id="Group_3">
<path id="Vector_10" d="M68.7617 60.7783L150.035 60.7783V24.3581L68.7617 24.3581V60.7783Z" fill="#E6E6E6"/>
<path id="Vector_11" d="M67.0646 60.7783L149.242 60.7783V24.3581L67.0646 24.3581V60.7783Z" fill="#F0F0F0"/>
<path id="Vector_12" d="M68.7617 63.9316L150.035 63.9316V60.7781L68.7617 60.7781V63.9316Z" fill="#E6E6E6"/>
<path id="Vector_13" d="M64.2384 63.9316L146.416 63.9316V60.7781L64.2384 60.7781V63.9316Z" fill="#F0F0F0"/>
<path id="Vector_14" d="M146.865 58.4025V26.7339L69.4389 26.7339V58.4025L146.865 58.4025Z" fill="#FAFAFA"/>
<path id="Vector_15" d="M142.489 58.4022L128.545 26.7336H121.963L135.906 58.4022H142.489Z" fill="white"/>
<path id="Vector_16" d="M145.765 56.0381C145.859 56.0381 145.935 55.9621 145.935 55.8685V28.2795C145.935 28.1859 145.859 28.1099 145.765 28.1099C145.672 28.1099 145.596 28.1859 145.596 28.2795V55.8685C145.596 55.9621 145.671 56.0381 145.765 56.0381Z" fill="#F0F0F0"/>
<path id="Vector_17" d="M134.488 58.4022L120.545 26.7336H117.979L131.922 58.4022H134.488Z" fill="white"/>
<path id="Vector_18" d="M69.7422 58.4022V26.7336H69.4404V58.4022H69.7422Z" fill="#E6E6E6"/>
<path id="Vector_19" opacity="0.6" d="M66.5039 30.3159H147.778L147.996 27.6572H66.7226L66.5039 30.3159Z" fill="#EBEBEB"/>
<path id="Vector_20" opacity="0.6" d="M66.5039 34.676H147.778L147.996 32.0173H66.7226L66.5039 34.676Z" fill="#EBEBEB"/>
<path id="Vector_21" opacity="0.6" d="M66.5039 39.0363H147.778L147.996 36.3779H66.7226L66.5039 39.0363Z" fill="#EBEBEB"/>
<path id="Vector_22" opacity="0.6" d="M66.5039 43.3964H147.778L147.996 40.738H66.7226L66.5039 43.3964Z" fill="#EBEBEB"/>
<path id="Vector_23" opacity="0.6" d="M66.5039 47.7568H147.778L147.996 45.0984H66.7226L66.5039 47.7568Z" fill="#EBEBEB"/>
<path id="Vector_24" opacity="0.6" d="M66.5039 52.1169H147.778L147.996 49.4585H66.7226L66.5039 52.1169Z" fill="#EBEBEB"/>
</g>
<g id="Group_4">
<path id="Vector_25" d="M44.7408 128.01H51.0293L51.0293 74.8483H44.7408L44.7408 128.01Z" fill="#E0E0E0"/>
<path id="Vector_26" d="M22.4128 129.246H49.8242V128.01H22.4128V129.246Z" fill="#F0F0F0"/>
<path id="Vector_27" d="M44.7411 74.8481H21.2031V128.01H44.7411V74.8481Z" fill="#F5F5F5"/>
<g id="Group_5">
<path id="Vector_28" d="M43.8488 85.4932H22.0938V95.7153H43.8488V85.4932Z" fill="white"/>
</g>
<g id="Group_6">
<path id="Vector_29" d="M32.9742 89.5143C33.7571 89.5143 34.3918 88.8797 34.3918 88.0968C34.3918 87.3139 33.7571 86.6792 32.9742 86.6792C32.1913 86.6792 31.5566 87.3139 31.5566 88.0968C31.5566 88.8797 32.1913 89.5143 32.9742 89.5143Z" fill="#F5F5F5"/>
</g>
<path id="Vector_30" d="M43.8488 75.9321H22.0938V83.4719H43.8488V75.9321Z" fill="#F0F0F0"/>
<path id="Vector_31" d="M43.8488 97.7368H22.0938V125.564H43.8488V97.7368Z" fill="#F0F0F0"/>
<path id="Vector_32" d="M26.6831 75.9321H22.0938V83.4719H26.6831V75.9321Z" fill="#E0E0E0"/>
<path id="Vector_33" d="M26.6831 97.7368H22.0938V125.564H26.6831V97.7368Z" fill="#E0E0E0"/>
</g>
<g id="Group_7">
<g id="Group_8">
<path id="Vector_34" d="M45.1365 129.71H69.0273V83.2395H45.1365L45.1365 129.71Z" fill="#F5F5F5"/>
<path id="Vector_35" d="M45.1372 129.71H47.1074L47.1074 83.2395H45.1372L45.1372 129.71Z" fill="#F0F0F0"/>
<path id="Vector_36" d="M122.196 84.5654H67.1855V92.0291H122.196V84.5654Z" fill="#E6E6E6"/>
<path id="Vector_37" d="M122.196 99.9094H67.1855V107.373H122.196V99.9094Z" fill="#F0F0F0"/>
<path id="Vector_38" d="M119.545 83.2395H45.1367V86.725H119.545V83.2395Z" fill="#F0F0F0"/>
<path id="Vector_39" d="M119.545 129.71H143.436V83.2395H119.545V129.71Z" fill="#F5F5F5"/>
<path id="Vector_40" d="M119.545 129.71H121.516V83.2395H119.545V129.71Z" fill="#F0F0F0"/>
</g>
<g id="Group_9">
<path id="Vector_41" d="M92.6563 83.2396H97.8108L96.5568 73.2078H91.4023L92.6563 83.2396Z" fill="#F0F0F0"/>
<path id="Vector_42" d="M91.5118 83.2396H96.666L95.4123 73.2078H90.2578L91.5118 83.2396Z" fill="#F5F5F5"/>
<path id="Vector_43" d="M90.8848 78.2237H96.039L95.4123 73.2078H90.2578L90.8848 78.2237Z" fill="#F0F0F0"/>
<path id="Vector_44" d="M109.825 77.0229H73.365C73.0608 77.0229 72.8255 76.7565 72.8634 76.4547L75.6732 53.976C75.7049 53.7232 75.9199 53.5332 76.1748 53.5332H112.635C112.939 53.5332 113.174 53.7995 113.137 54.1014L110.327 76.5801C110.295 76.8329 110.08 77.0229 109.825 77.0229Z" fill="#F0F0F0"/>
<path id="Vector_45" d="M109.284 77.0229H72.8239C72.52 77.0229 72.2848 76.7565 72.3223 76.4547L75.1321 53.976C75.1635 53.7232 75.3788 53.5332 75.6337 53.5332H112.094C112.398 53.5332 112.633 53.7995 112.596 54.1014L109.786 76.5801C109.754 76.8329 109.539 77.0229 109.284 77.0229Z" fill="#F5F5F5"/>
<path id="Vector_46" d="M73.4972 75.7803L76.1272 54.7402C76.136 54.6695 76.1961 54.6165 76.2674 54.6165H111.278C111.363 54.6165 111.429 54.6908 111.418 54.7753L108.788 75.8155C108.779 75.8861 108.719 75.9392 108.648 75.9392H73.6375C73.5526 75.9392 73.4867 75.8648 73.4972 75.7803Z" fill="#E6E6E6"/>
<path id="Vector_47" d="M94.3833 82.2993H87.6601C87.1984 82.2993 86.8242 82.6735 86.8242 83.1355V83.2396H95.2195V83.1355C95.2191 82.6738 94.845 82.2993 94.3833 82.2993Z" fill="#F5F5F5"/>
<path id="Vector_48" d="M99.1048 82.2993H95.082C94.6203 82.2993 94.2461 82.6735 94.2461 83.1355V83.2396H99.9411V83.1355C99.9411 82.6738 99.5669 82.2993 99.1048 82.2993Z" fill="#F0F0F0"/>
</g>
<g id="Group_10">
<path id="Vector_49" d="M77.543 83.2403H103.5L104.201 81.8H80.9203L77.543 83.2403Z" fill="#F5F5F5"/>
<path id="Vector_50" d="M100.643 83.2403H104.931L105.511 81.8H101.223L100.643 83.2403Z" fill="#F0F0F0"/>
</g>
<path id="Vector_51" d="M70.9773 81.4971H67.0748C66.1125 81.4971 65.332 82.2772 65.332 83.2398H72.7197C72.72 82.2772 71.9396 81.4971 70.9773 81.4971Z" fill="#F0F0F0"/>
</g>
<g id="Group_11">
<g id="Group_12">
<path id="Vector_52" d="M20.1113 26.1384L20.1113 62.3547H46.4872V26.1384H20.1113Z" fill="#F0F0F0"/>
<path id="Vector_53" d="M21.4921 60.9736H45.1055L45.1055 27.5197H21.4921L21.4921 60.9736Z" fill="white"/>
<path id="Vector_54" d="M37.4963 59.0666C37.7964 58.9815 37.9712 58.6692 37.886 58.369L29.7963 29.8168C29.7111 29.5167 29.3988 29.3419 29.0987 29.4271C28.7985 29.5123 28.6241 29.8246 28.7089 30.1247L36.7986 58.6769C36.8838 58.9771 37.1961 59.1515 37.4963 59.0666Z" fill="#F5F5F5"/>
</g>
</g>
</g>
</g>
<g id="Shadow_1_">
<path id="_x3C_Path_x3E__193_" d="M84.4993 144.516C120.693 144.516 150.034 142.802 150.034 140.689C150.034 138.575 120.693 136.861 84.4993 136.861C48.3056 136.861 18.9648 138.575 18.9648 140.689C18.9648 142.802 48.3056 144.516 84.4993 144.516Z" fill="#F5F5F5"/>
</g>
<g id="Smartphone">
<g id="Group_13">
<g id="Group_14">
<g id="Group_15">
<path id="Vector_55" d="M109.605 140.546H67.5844C64.6495 140.546 62.248 138.145 62.248 135.21V35.9213C62.248 32.9865 64.6492 30.585 67.5844 30.585H109.605C112.54 30.585 114.941 32.9865 114.941 35.9213V135.21C114.941 138.145 112.54 140.546 109.605 140.546Z" fill="#23A455"/>
<path id="Vector_56" d="M114.493 67.9458H114.013C113.398 67.9458 112.895 67.4428 112.895 66.8277V50.4587C112.895 49.8439 113.398 49.3406 114.013 49.3406H114.493C115.108 49.3406 115.611 49.8439 115.611 50.4587V66.8277C115.611 67.4428 115.108 67.9458 114.493 67.9458Z" fill="#23A455"/>
<path id="Vector_57" d="M62.3554 60.2832H61.533C61.0122 60.2832 60.5859 59.857 60.5859 59.3362V53.9356C60.5859 53.4147 61.0122 52.9885 61.533 52.9885H62.3554C62.8762 52.9885 63.3024 53.4147 63.3024 53.9356V59.3362C63.3024 59.857 62.8762 60.2832 62.3554 60.2832Z" fill="#23A455"/>
<path id="Vector_58" d="M93.8427 29.4019H85.2051V29.7399H93.8427V29.4019Z" fill="#23A455"/>
<path id="Vector_59" d="M97.415 29.4019H95.5371V29.7399H97.415V29.4019Z" fill="#23A455"/>
<path id="Vector_60" d="M108.714 140.546H66.6938C63.7589 140.546 61.3574 138.145 61.3574 135.21V35.9213C61.3574 32.9865 63.7589 30.585 66.6938 30.585H108.714C111.649 30.585 114.051 32.9865 114.051 35.9213V135.21C114.05 138.145 111.649 140.546 108.714 140.546Z" fill="#23A455"/>
<path id="Vector_61" d="M112.516 134.468H62.8928C62.3199 134.468 61.8555 134.003 61.8555 133.43V37.882C61.8555 37.3091 62.3199 36.8447 62.8928 36.8447H112.516C113.089 36.8447 113.554 37.3091 113.554 37.882V133.43C113.553 134.003 113.089 134.468 112.516 134.468Z" fill="white"/>
<path id="Vector_62" opacity="0.05" d="M101.967 97.335H70.6006C67.8 97.335 65.5293 95.0647 65.5293 92.2637V46.7205C65.5293 43.9199 67.7996 41.6492 70.6006 41.6492H101.967C104.767 41.6492 107.038 43.9195 107.038 46.7205V92.2637C107.038 95.0643 104.767 97.335 101.967 97.335Z" fill="#23A455"/>
<path id="Vector_63" opacity="0.05" d="M92.466 70.3064C90.5831 70.3064 89.0566 71.8328 89.0566 73.7158V104.334C89.0566 106.217 90.5831 107.743 92.466 107.743H113.553V70.3064H92.466Z" fill="#23A455"/>
</g>
</g>
<path id="Vector_64" d="M81.0429 33.8188H49.0877C47.7418 33.8188 46.6504 34.9099 46.6504 36.2562V52.6607C46.6504 54.0066 47.7415 55.098 49.0877 55.098H71.6445L76.5343 57.5928V55.098H81.0429C82.3888 55.098 83.4802 54.0066 83.4802 52.6607V36.2562C83.4802 34.9102 82.3892 33.8188 81.0429 33.8188Z" fill="#993366"/>
<g id="Group_16">
<path id="Vector_65" d="M79.2179 40.0225H54.6625C53.8932 40.0225 53.2676 39.3965 53.2676 38.6272C53.2676 37.8579 53.8936 37.2319 54.6625 37.2319H79.2179C79.9872 37.2319 80.6131 37.8579 80.6131 38.6272C80.6131 39.3965 79.9868 40.0225 79.2179 40.0225ZM54.6625 37.5584C54.073 37.5584 53.5934 38.0381 53.5934 38.6275C53.5934 39.217 54.073 39.6966 54.6625 39.6966H79.2179C79.8073 39.6966 80.287 39.2173 80.287 38.6275C80.287 38.0381 79.8077 37.5584 79.2179 37.5584H54.6625Z" fill="white"/>
<path id="Vector_66" d="M79.2183 44.7598H62.3055C61.55 44.7598 60.9355 44.1454 60.9355 43.3899C60.9355 42.6345 61.55 42.02 62.3055 42.02H79.2183C79.9737 42.02 80.5882 42.6345 80.5882 43.3899C80.5882 44.145 79.9734 44.7598 79.2183 44.7598ZM62.3055 42.2958C61.7021 42.2958 61.2114 42.7866 61.2114 43.3899C61.2114 43.9933 61.7021 44.484 62.3055 44.484H79.2183C79.8216 44.484 80.3124 43.9933 80.3124 43.3899C80.3124 42.7866 79.8216 42.2958 79.2183 42.2958H62.3055Z" fill="white"/>
<path id="Vector_67" d="M79.2201 49.4919H58.4632C57.7006 49.4919 57.0801 48.8713 57.0801 48.1088C57.0801 47.3459 57.7006 46.7253 58.4632 46.7253H79.2201C79.983 46.7253 80.6035 47.3459 80.6035 48.1088C80.6032 48.8713 79.9826 49.4919 79.2201 49.4919ZM58.4632 47.0275C57.8673 47.0275 57.3823 47.5122 57.3823 48.1084C57.3823 48.7043 57.8669 49.1894 58.4632 49.1894H79.2201C79.8163 49.1894 80.301 48.7043 80.301 48.1084C80.301 47.5122 79.816 47.0275 79.2201 47.0275H58.4632Z" fill="white"/>
</g>
<g id="Group_17">
<g id="Group_18">
<path id="Vector_68" d="M126.29 49.145H89.6561C88.3102 49.145 87.2188 50.2361 87.2188 51.5823V60.9868C87.2188 62.3328 88.3098 63.4242 89.6561 63.4242H94.1646V65.9189L99.0548 63.4242H126.29C127.635 63.4242 128.727 62.3331 128.727 60.9868V51.5823C128.727 50.2364 127.635 49.145 126.29 49.145Z" fill="#23A455"/>
</g>
<path id="Vector_69" opacity="0.7" d="M126.291 49.145H89.658C88.3121 49.145 87.2207 50.2361 87.2207 51.5823V60.9868C87.2207 62.3328 88.3118 63.4242 89.658 63.4242H94.1666V65.9189L99.0568 63.4242H126.291C127.637 63.4242 128.729 62.3331 128.729 60.9868V51.5823C128.729 50.2364 127.637 49.145 126.291 49.145Z" fill="white"/>
</g>
<g id="Group_19">
<path id="Vector_70" d="M116.089 55.2987H91.5339C90.7646 55.2987 90.1387 54.6728 90.1387 53.9035C90.1387 53.1342 90.7646 52.5085 91.5339 52.5085H116.089C116.859 52.5085 117.485 53.1345 117.485 53.9035C117.485 54.6724 116.858 55.2987 116.089 55.2987ZM91.5339 52.8347C90.9445 52.8347 90.4648 53.3143 90.4648 53.9038C90.4648 54.4933 90.9441 54.9729 91.5339 54.9729H116.089C116.679 54.9729 117.158 54.4936 117.158 53.9038C117.158 53.3143 116.679 52.8347 116.089 52.8347H91.5339Z" fill="white"/>
<path id="Vector_71" d="M108.449 60.0362H91.5359C90.7805 60.0362 90.166 59.4217 90.166 58.6663C90.166 57.9109 90.7805 57.2964 91.5359 57.2964H108.449C109.204 57.2964 109.819 57.9109 109.819 58.6663C109.819 59.4214 109.204 60.0362 108.449 60.0362ZM91.5359 57.5719C90.9326 57.5719 90.4418 58.0626 90.4418 58.666C90.4418 59.2693 90.9326 59.7601 91.5359 59.7601H108.449C109.052 59.7601 109.543 59.2693 109.543 58.666C109.543 58.0626 109.052 57.5719 108.449 57.5719H91.5359Z" fill="white"/>
</g>
<g id="Group_20">
<g id="Group_21">
<g id="Group_22">
<path id="Vector_72" d="M113.559 120.621H56.0874C54.9896 120.621 54.0996 119.731 54.0996 118.634V116.605C54.0996 115.507 54.9896 114.617 56.0874 114.617H113.559V120.621Z" fill="#23A455"/>
<path id="Vector_73" opacity="0.2" d="M113.559 120.621H56.0874C54.9896 120.621 54.0996 119.731 54.0996 118.634V116.605C54.0996 115.507 54.9896 114.617 56.0874 114.617H113.559V120.621Z" fill="#263238"/>
</g>
<path id="Vector_74" opacity="0.3" d="M113.558 120.621H100.568C99.47 120.621 98.5801 119.731 98.5801 118.634V116.605C98.5801 115.507 99.47 114.617 100.568 114.617H113.558V120.621Z" fill="#263238"/>
</g>
<path id="Vector_75" opacity="0.3" d="M103.369 120.621L111.116 129.008C112.018 129.984 113.558 129.293 113.558 127.914V120.621H103.369Z" fill="#23A455"/>
<path id="Vector_76" opacity="0.3" d="M66.3086 120.621L74.0559 129.008C74.957 129.984 76.4976 129.293 76.4976 127.914V120.621H66.3086Z" fill="#23A455"/>
</g>
</g>
</g>
<g id="Character_1_">
<g id="Group_23">
<g id="Group_24">
<path id="Vector_77" d="M81.3343 90.8849C81.2812 91.5126 81.2082 92.0949 81.1261 92.6945C81.046 93.2901 80.9594 93.884 80.8543 94.4758C80.6512 95.6601 80.4058 96.8398 80.111 98.015C79.9633 98.6024 79.8075 99.1895 79.6294 99.7746C79.5405 100.067 79.4513 100.359 79.3505 100.651C79.2518 100.942 79.1697 101.223 79.0065 101.566C78.9277 101.731 78.8408 101.9 78.732 102.083C78.6188 102.268 78.4991 102.467 78.2716 102.711C78.1557 102.831 78.0053 102.976 77.7565 103.117C77.5172 103.259 77.0941 103.383 76.6966 103.313C76.3048 103.248 76.0354 103.062 75.8793 102.919C75.717 102.769 75.6234 102.635 75.548 102.514C75.2712 102.043 75.2182 101.701 75.1495 101.351C75.1046 100.998 75.0738 100.688 75.084 100.331L76.6844 99.9774C76.8274 100.191 76.9605 100.446 77.1123 100.646C77.2455 100.845 77.4172 101.053 77.4875 101.056C77.5003 101.053 77.5041 101.03 77.4554 100.972C77.4114 100.924 77.2769 100.808 77.0308 100.764C76.7797 100.712 76.5056 100.796 76.3907 100.861C76.2666 100.925 76.2237 100.968 76.2011 100.974C76.1605 100.992 76.1859 100.933 76.2017 100.855L76.266 100.561C76.3075 100.353 76.3765 100.066 76.4481 99.7969C76.5198 99.5279 76.582 99.2531 76.6438 98.9783C76.7713 98.4307 76.8906 97.8771 76.9967 97.3187C77.214 96.2036 77.4013 95.0761 77.575 93.9445C77.7481 92.8193 77.9049 91.6609 78.0411 90.5601L81.3343 90.8849Z" fill="#B55B52"/>
<path id="Vector_78" d="M78.433 87.5264C77.6654 88.6685 76.8965 93.0956 76.8965 93.0956L82.2818 95.4727C82.2818 95.4727 83.7981 88.2612 82.5914 86.9396C81.3348 85.5629 79.2824 86.2626 78.433 87.5264Z" fill="#23A455"/>
<path id="Vector_79" opacity="0.2" d="M79.4803 90.4458C78.7465 91.2891 78.403 92.633 78.3047 93.7173L82.2809 95.4735C82.2809 95.4735 82.8177 92.9105 82.9965 90.5627C82.1126 89.6245 80.7325 88.9965 79.4803 90.4458Z" fill="black"/>
<path id="Vector_80" d="M53.5651 137.526L50.8848 135.712L54.6318 129.199L57.3118 131.013L53.5651 137.526Z" fill="#B55B52"/>
<path id="Vector_81" d="M71.2923 140.258L68.1895 139.152L69.2717 131.722L72.3749 132.827L71.2923 140.258Z" fill="#B55B52"/>
<path id="Vector_82" d="M68.0145 138.72L71.647 138.87C71.7792 138.876 71.8826 138.972 71.8958 139.102L72.1905 141.866C72.2209 142.166 71.9529 142.438 71.6484 142.42C70.3829 142.345 69.7755 142.372 68.1781 142.306C67.1952 142.266 65.1987 142.51 63.8416 142.453C62.5143 142.398 62.4676 141.052 63.0378 140.954C65.5945 140.514 66.5824 139.577 67.4656 138.896C67.6252 138.773 67.8212 138.712 68.0145 138.72Z" fill="#263238"/>
<path id="Vector_83" d="M51.2501 134.749L54.2448 136.81C54.3537 136.886 54.3902 137.022 54.332 137.139L53.0419 139.743C52.908 140.013 52.5366 140.101 52.2881 139.923C51.2566 139.186 50.9037 138.91 49.5868 138.004C48.7767 137.446 46.8761 136.296 45.7573 135.526C44.6632 134.773 45.3994 133.557 45.9341 133.777C48.3322 134.766 49.5811 134.713 50.6918 134.606C50.8919 134.586 51.0906 134.639 51.2501 134.749Z" fill="#263238"/>
<g id="Group_25" opacity="0.2">
<path id="Vector_84" d="M54.6306 129.201L52.4238 133.036L55.2715 134.562L57.312 131.016L54.6306 129.201Z" fill="black"/>
<path id="Vector_85" d="M72.3718 132.83L69.2677 131.723L68.6133 136.227L71.7847 136.87L72.3718 132.83Z" fill="black"/>
</g>
<path id="Vector_86" d="M78.514 89.0104C78.5519 91.4433 79.0376 96.3196 80.8837 106.081L94.0228 105.743C93.6649 100.402 93.574 97.1045 95.8473 86.0644C95.8473 86.0644 93.0791 85.5364 90.249 85.4729C88.0355 85.4232 86.2221 85.3992 84.283 85.6266C83.0841 85.7673 81.8115 85.989 80.7982 86.185C79.4499 86.446 78.4927 87.6371 78.514 89.0104Z" fill="#23A455"/>
<path id="Vector_87" opacity="0.2" d="M95.5077 87.7686C94.4274 88.209 93.3546 89.2361 92.8841 90.3127C92.2494 91.7627 93.8413 94.7449 94.2209 95.4155C94.4778 93.3533 94.8895 90.8974 95.5077 87.7686Z" fill="black"/>
<path id="Vector_88" d="M86.1151 71.7229C84.8057 73.1888 83.6227 79.385 87.6834 82.1857C87.5083 84.77 93.7035 83.0682 94.4529 79.9076C95.141 77.0035 90.042 67.3259 86.1151 71.7229Z" fill="#263238"/>
<path id="Vector_89" d="M91.3374 82.7104C91.2891 82.7104 91.2485 82.6722 91.2462 82.6232C91.2441 82.5728 91.283 82.5302 91.3334 82.5278C93.7217 82.4183 94.5052 81.1147 94.7418 80.0402C95.2927 77.5376 93.5155 74.2249 91.6737 73.268C91.6291 73.2447 91.6115 73.1896 91.6349 73.145C91.6582 73.1 91.7126 73.0828 91.7579 73.1061C93.6554 74.092 95.4871 77.5035 94.9199 80.0794C94.6698 81.2164 93.8457 82.5954 91.3415 82.7104C91.3401 82.7104 91.3384 82.7104 91.3374 82.7104Z" fill="#263238"/>
<path id="Vector_90" d="M91.9315 83.157C91.5982 83.157 91.2349 83.131 90.8384 83.0746C90.7884 83.0675 90.7536 83.0212 90.7607 82.9711C90.7678 82.9211 90.8144 82.887 90.8641 82.8934C93.2828 83.2392 94.8627 82.4395 95.3108 80.642C95.9588 78.0455 94.0285 74.1196 91.6871 73.2726C91.6398 73.2553 91.6151 73.2029 91.6324 73.1556C91.6496 73.1083 91.7023 73.0833 91.7493 73.1008C94.2113 73.9915 96.168 77.9616 95.4879 80.6859C95.2453 81.6587 94.4601 83.1567 91.9315 83.157Z" fill="#263238"/>
<path id="Vector_91" d="M89.5058 79.4905C89.179 81.4198 88.8751 84.2265 90.2511 85.4727C90.2511 85.4727 87.5779 86.9397 84.7678 91.5919C82.3159 87.7684 84.2851 85.6265 84.2851 85.6265C86.4125 85.0604 86.3351 84.1938 85.9237 82.712L89.5058 79.4905Z" fill="#B55B52"/>
<path id="Vector_92" d="M86.1379 87.9666C86.0182 88.4138 85.6035 88.7815 85.2114 88.7883C84.8193 88.7951 84.5986 88.4381 84.7179 87.991C84.8376 87.5438 85.2523 87.176 85.6444 87.1693C86.0368 87.1625 86.2575 87.5195 86.1379 87.9666Z" fill="white"/>
<path id="Vector_93" d="M85.8505 87.542C85.8451 87.542 85.8417 87.542 85.839 87.542C85.7924 87.5413 85.7552 87.5031 85.7559 87.4565C85.7565 87.4102 85.7944 87.373 85.8404 87.373C85.8414 87.373 85.8414 87.373 85.8434 87.373C85.9147 87.373 87.9187 87.3507 90.1969 85.4085C90.2323 85.3785 90.2854 85.3825 90.3162 85.418C90.3462 85.4535 90.3422 85.5069 90.3067 85.5373C88.0107 87.494 86.0351 87.542 85.8505 87.542Z" fill="white"/>
<path id="Vector_94" d="M85.4254 87.5081C85.421 87.5081 85.4166 87.5078 85.4122 87.5071C85.4001 87.5051 84.2012 87.2993 84.2012 85.6265C84.2012 85.5798 84.239 85.542 84.2857 85.542C84.3323 85.542 84.3702 85.5798 84.3702 85.6265C84.3702 87.1499 85.395 87.3334 85.4386 87.3402C85.4846 87.3476 85.516 87.3909 85.5089 87.4368C85.5021 87.4784 85.4663 87.5081 85.4254 87.5081Z" fill="white"/>
<path id="Vector_95" opacity="0.2" d="M88.048 80.8049L85.9277 82.7102C86.0264 83.0611 86.1052 83.417 86.139 83.7645C86.9536 83.6252 88.2221 82.8951 88.3745 82.0018C88.4468 81.5783 88.1227 81.002 88.048 80.8049Z" fill="black"/>
<path id="Vector_96" d="M80.8513 70.7762C79.5331 72.2522 77.8718 77.3618 81.9599 80.1817C81.7835 82.7836 87.7989 80.7201 88.8778 77.6325C89.9567 74.5449 84.8052 66.3491 80.8513 70.7762Z" fill="#263238"/>
<path id="Vector_97" d="M89.8527 74.4978C90.3803 77.6659 90.6713 78.9956 89.463 80.9624C87.6452 83.9209 83.6386 83.8763 82.1747 80.9296C80.8572 78.2773 80.2156 73.542 82.9872 71.5944C85.7179 69.6756 89.3251 71.3294 89.8527 74.4978Z" fill="#B55B52"/>
<path id="Vector_98" d="M82.2839 71.2091C82.4765 72.9032 85.8042 77.2472 89.9619 76.2362C91.5336 77.8421 93.6573 72.7913 92.2911 70.3266C90.9249 67.8623 81.7056 66.128 82.2839 71.2091Z" fill="#263238"/>
<g id="Group_26">
<path id="Vector_99" d="M80.8876 106.081C74.4988 105.654 61.3664 107.274 59.3381 113.522C56.286 122.922 52.7461 130.951 52.7461 130.951L56.8487 132.916C56.8487 132.916 64.7407 123.337 67.1675 117.092C71.9141 117.619 78.1738 116.146 80.0633 115.915C87.0004 115.066 89.8399 110.578 90.5088 105.833L80.8876 106.081Z" fill="#263238"/>
</g>
<path id="Vector_100" opacity="0.2" d="M75.5887 109.242C70.4589 109.165 64.2373 112.415 64.9346 121.517C65.8476 119.973 66.6361 118.454 67.1654 117.092C68.6807 117.26 70.3528 117.224 71.985 117.092C73.606 113.507 76.8228 109.26 75.5887 109.242Z" fill="black"/>
<g id="Group_27">
<path id="Vector_101" d="M56.544 133.936L51.9941 131.557L52.4193 129.931L57.6073 132.418L56.544 133.936Z" fill="#23A455"/>
<path id="Vector_102" opacity="0.4" d="M56.544 133.936L51.9941 131.557L52.4193 129.931L57.6073 132.418L56.544 133.936Z" fill="black"/>
</g>
<g id="Group_28">
<path id="Vector_103" d="M84.3547 105.992C84.3547 105.992 68.3247 109.627 68.3771 114.414C68.4886 124.646 68.2852 134.539 68.2852 134.539L72.6579 135.41C72.6579 135.41 76.313 123.824 76.3434 117.619C83.1896 115.057 96.6126 120.864 94.0239 105.743L84.3547 105.992Z" fill="#263238"/>
</g>
<g id="Group_29">
<path id="Vector_104" d="M73.1055 136.124L67.7219 135.13L67.4609 133.332L73.8468 134.215L73.1055 136.124Z" fill="#23A455"/>
<path id="Vector_105" opacity="0.4" d="M73.1055 136.124L67.7219 135.13L67.4609 133.332L73.8468 134.215L73.1055 136.124Z" fill="black"/>
</g>
<path id="Vector_106" d="M85.0619 76.4749C85.1204 76.7294 85.0332 76.9664 84.8669 77.0049C84.7006 77.0431 84.5184 76.868 84.4596 76.6138C84.4011 76.3593 84.4883 76.122 84.6546 76.0839C84.8209 76.0457 85.0031 76.2204 85.0619 76.4749Z" fill="#263238"/>
<path id="Vector_107" d="M82.1885 77.1371C82.247 77.3916 82.1598 77.6286 81.9935 77.6671C81.8272 77.7053 81.645 77.5302 81.5865 77.2757C81.5281 77.0212 81.6153 76.7842 81.7816 76.7457C81.9479 76.7075 82.13 76.8826 82.1885 77.1371Z" fill="#263238"/>
<path id="Vector_108" d="M81.8567 76.743L81.2051 76.7075C81.2051 76.7075 81.6286 77.1128 81.8567 76.743Z" fill="#263238"/>
<path id="Vector_109" d="M83.1776 77.3909C83.1776 77.3909 82.9981 78.5854 82.6445 79.2232C83.0525 79.4594 83.5906 79.1846 83.5906 79.1846L83.1776 77.3909Z" fill="#A02724"/>
<path id="Vector_110" d="M85.2084 79.8612C85.0956 79.9062 84.9729 79.9451 84.84 79.9755C84.7988 79.985 84.7576 79.9593 84.7481 79.9184C84.7386 79.8768 84.7636 79.8339 84.8055 79.8264C85.922 79.5672 86.2637 78.6695 86.2671 78.6603C86.2816 78.6204 86.3255 78.5998 86.3654 78.6147C86.405 78.6292 86.4256 78.6735 86.411 78.7131C86.3979 78.7485 86.1123 79.5009 85.2084 79.8612Z" fill="#263238"/>
<path id="Vector_111" d="M91.0919 76.9467C90.9976 77.6058 90.6079 78.1601 90.1648 78.4812C89.4983 78.9642 88.8804 78.4369 88.8273 77.6589C88.7793 76.9585 89.0683 75.8634 89.8518 75.6883C90.6238 75.5156 91.1998 76.1933 91.0919 76.9467Z" fill="#B55B52"/>
<path id="Vector_112" d="M85.4937 75.3554C85.4311 75.3723 85.3625 75.3483 85.3257 75.2912C84.9383 74.6973 84.0261 74.6571 84.017 74.6568C83.9325 74.6537 83.8662 74.5824 83.8692 74.4979C83.8723 74.4137 83.9426 74.3472 84.0281 74.3502C84.072 74.3519 85.1094 74.3979 85.5826 75.1239C85.6289 75.1949 85.6086 75.2898 85.538 75.3358C85.5238 75.3453 85.5089 75.3514 85.4937 75.3554Z" fill="#263238"/>
<path id="Vector_113" d="M80.6674 75.9955C80.6187 76.0147 80.5616 76.009 80.517 75.9749C80.4497 75.9231 80.4372 75.8271 80.4889 75.7599C81.0054 75.0876 81.7121 75.1339 81.7415 75.1366C81.826 75.1434 81.8892 75.2171 81.8825 75.3012C81.8761 75.3854 81.8027 75.4479 81.7182 75.4425C81.6902 75.4405 81.1423 75.4131 80.7323 75.9471C80.7147 75.9691 80.692 75.9857 80.6674 75.9955Z" fill="#263238"/>
<path id="Vector_114" d="M66.3037 139.071C66.2939 139.063 66.2841 139.054 66.275 139.045C66.1709 138.942 66.1337 138.803 66.1651 138.632C66.1888 138.504 66.2658 138.448 66.3263 138.424C66.7096 138.269 67.6652 138.943 67.773 139.021C67.8004 139.039 67.8098 139.069 67.8031 139.1C67.7966 139.13 67.773 139.153 67.7429 139.158C67.3332 139.237 66.614 139.328 66.3037 139.071ZM67.5306 139.04C67.1406 138.781 66.5852 138.484 66.3838 138.566C66.3581 138.576 66.3277 138.596 66.3159 138.66C66.2942 138.779 66.3159 138.869 66.3831 138.936C66.5396 139.096 66.9628 139.129 67.5306 139.04Z" fill="#263238"/>
<path id="Vector_115" d="M67.5912 139.077C67.2819 138.821 66.8364 138.203 66.9155 137.877C66.9321 137.808 66.9895 137.689 67.1822 137.674C67.3045 137.665 67.4117 137.704 67.5023 137.79C67.8409 138.116 67.8065 139.047 67.8051 139.086C67.8041 139.114 67.7885 139.138 67.7642 139.151C67.7402 139.163 67.7111 139.162 67.6882 139.148C67.6577 139.13 67.6253 139.106 67.5912 139.077ZM67.3782 137.885C67.3245 137.84 67.2643 137.821 67.1943 137.827C67.096 137.835 67.0733 137.877 67.0646 137.914C67.0108 138.134 67.3559 138.673 67.653 138.931C67.6479 138.621 67.5976 138.095 67.3958 137.901C67.39 137.895 67.384 137.89 67.3782 137.885Z" fill="#263238"/>
<path id="Vector_116" d="M49.929 134.526C49.6637 134.343 49.4477 134.134 49.3953 133.916C49.3622 133.778 49.395 133.649 49.493 133.53C49.5515 133.46 49.6285 133.427 49.7157 133.436C50.167 133.482 50.8545 134.757 50.9312 134.902C50.9464 134.93 50.942 134.965 50.92 134.989C50.8981 135.013 50.8632 135.021 50.8332 135.008C50.5759 134.897 50.2224 134.728 49.929 134.526ZM49.8334 133.647C49.7847 133.613 49.7394 133.593 49.6998 133.589C49.664 133.585 49.6366 133.597 49.611 133.629C49.5444 133.708 49.5227 133.791 49.5444 133.88C49.6059 134.138 50.027 134.465 50.6855 134.773C50.4404 134.346 50.0858 133.821 49.8334 133.647Z" fill="#263238"/>
<path id="Vector_117" d="M50.8197 135.001C50.8109 134.994 50.8031 134.987 50.7974 134.977C50.5787 134.615 50.3462 133.607 50.603 133.339C50.6639 133.275 50.7757 133.221 50.963 133.324C51.1009 133.399 51.1939 133.517 51.2378 133.674C51.3808 134.184 50.9481 134.943 50.9299 134.976C50.9164 134.999 50.8913 135.014 50.8643 135.014C50.8481 135.014 50.8325 135.009 50.8197 135.001ZM50.9285 133.483C50.916 133.474 50.9028 133.466 50.8893 133.459C50.7659 133.391 50.7267 133.432 50.7139 133.445C50.5594 133.606 50.6747 134.352 50.8636 134.771C50.9762 134.541 51.1841 134.05 51.0904 133.715C51.062 133.614 51.009 133.538 50.9285 133.483Z" fill="#263238"/>
<path id="Vector_118" d="M84.7317 76.0807L84.0801 76.0452C84.0801 76.0452 84.5036 76.4501 84.7317 76.0807Z" fill="#263238"/>
<g id="Group_30">
<path id="Vector_119" d="M94.2017 104.967L94.5678 106.135C94.6161 106.225 94.5103 106.321 94.3586 106.324L80.8359 106.672C80.7176 106.675 80.6179 106.62 80.6084 106.545L80.4597 105.372C80.4495 105.291 80.5503 105.219 80.6797 105.216L93.9848 104.874C94.0828 104.872 94.1707 104.909 94.2017 104.967Z" fill="white"/>
</g>
<g id="Group_31">
<g id="Group_32">
<path id="Vector_120" d="M92.4055 106.502L92.7618 106.493C92.8327 106.491 92.8858 106.453 92.8797 106.408L92.6732 104.885C92.6671 104.84 92.6043 104.805 92.5333 104.807L92.177 104.816C92.1061 104.818 92.053 104.856 92.0591 104.901L92.2656 106.424C92.2717 106.469 92.3345 106.504 92.4055 106.502Z" fill="#263238"/>
</g>
<g id="Group_33">
<path id="Vector_121" d="M81.8333 106.774L82.1895 106.765C82.2605 106.763 82.3136 106.725 82.3075 106.68L82.1009 105.156C82.0949 105.112 82.032 105.077 81.961 105.079L81.6048 105.088C81.5338 105.089 81.4807 105.128 81.4868 105.172L81.6933 106.696C81.6994 106.741 81.7623 106.776 81.8333 106.774Z" fill="#263238"/>
</g>
<g id="Group_34">
<path id="Vector_122" d="M87.1008 106.638L87.4571 106.629C87.5281 106.628 87.5811 106.589 87.575 106.545L87.3685 105.021C87.3624 104.977 87.2996 104.942 87.2286 104.943L86.8723 104.953C86.8014 104.954 86.7483 104.992 86.7544 105.037L86.9609 106.561C86.9666 106.605 87.0298 106.64 87.1008 106.638Z" fill="#263238"/>
</g>
</g>
<path id="Vector_123" d="M85.7044 98.8061L82.4336 97.571L83.5291 100.674C83.5291 100.674 85.5794 101.013 86.3993 99.9468L85.7044 98.8061Z" fill="#B55B52"/>
<path id="Vector_124" d="M97.2009 90.5154C97.3378 90.9855 97.4294 91.3851 97.518 91.8211C97.6048 92.249 97.6846 92.6779 97.7461 93.1122C97.8681 93.9806 97.9401 94.8631 97.9354 95.772C97.9222 96.6805 97.8492 97.6164 97.5856 98.5885C97.519 98.8312 97.4399 99.0762 97.3436 99.3223C97.2672 99.5241 97.1005 99.9243 96.8785 100.219C96.4347 100.836 95.8395 101.21 95.3074 101.433C94.769 101.656 94.2583 101.767 93.7729 101.834C93.2859 101.902 92.8204 101.92 92.3648 101.915C91.4563 101.904 90.5896 101.809 89.7423 101.665C88.0445 101.378 86.4403 100.936 84.8379 100.353L85.2766 98.7734C86.8351 99.0222 88.4484 99.2118 89.9998 99.2872C90.7769 99.3189 91.5465 99.323 92.2722 99.2577C92.9867 99.1901 93.6935 99.0536 94.116 98.8197C94.3235 98.7044 94.4226 98.5919 94.4452 98.5324C94.4374 98.5652 94.5618 98.1711 94.6054 97.8845C94.7132 97.2629 94.7366 96.5537 94.6984 95.8298C94.6642 95.1037 94.572 94.3564 94.4523 93.6084C94.3918 93.2343 94.3293 92.8581 94.2529 92.4852C94.1775 92.1209 94.0896 91.7224 94.0146 91.403L97.2009 90.5154Z" fill="#B55B52"/>
<path id="Vector_125" d="M95.8484 86.0642C97.175 86.4306 98.1948 91.8075 98.1948 91.8075L93.1745 94.2969C93.1745 94.2969 91.8999 90.9693 92.4092 89.2536C92.9399 87.4669 94.3345 85.6461 95.8484 86.0642Z" fill="#23A455"/>
<path id="Vector_126" d="M81.5451 102.274H78.5937C78.3838 102.274 78.1716 102.104 78.1198 101.894L76.5857 95.6566C76.5339 95.4467 76.6624 95.2764 76.8723 95.2764H79.8237C80.0336 95.2764 80.2459 95.4467 80.2976 95.6566L81.8321 101.894C81.8838 102.104 81.7554 102.274 81.5451 102.274Z" fill="#263238"/>
<path id="Vector_127" d="M75.3515 98.6697L77.1504 97.9092L76.7553 101.396C76.7553 101.396 76.5416 101.48 76.2317 101.541C75.073 101.771 74.1114 100.636 74.5258 99.5302C74.6711 99.1422 74.9699 98.8309 75.3515 98.6697Z" fill="#B55B52"/>
<g id="Group_35">
<path id="Vector_128" d="M78.7466 98.3662L78.414 101.026L76.7578 101.396L77.1529 97.9092L78.7466 98.3662Z" fill="#B55B52"/>
</g>
<path id="Vector_129" d="M79.834 98.3829L80.8916 100.931L83.5263 100.674L82.4308 97.571L79.834 98.3829Z" fill="#B55B52"/>
</g>
</g>
</g>
</g>
</svg>
