<svg width="134" height="80" viewBox="0 0 134 80" fill="none" xmlns="http://www.w3.org/2000/svg">
<rect x="93" y="9" width="62" height="93" rx="4" transform="rotate(90 93 9)" fill="#23A455"/>
<path d="M129.506 36.7565C131.718 38.353 131.718 41.647 129.506 43.2435L92.3408 70.0649C89.6954 71.9741 86 70.0838 86 66.8214V13.1786C86 9.91618 89.6954 8.02588 92.3408 9.93508L129.506 36.7565Z" fill="#23A455"/>
<path d="M17.6 49.24C16.288 49.24 15.168 49 14.24 48.52C13.312 48.04 12.488 47.344 11.768 46.432L13.304 44.896C13.832 45.632 14.44 46.192 15.128 46.576C15.816 46.944 16.664 47.128 17.672 47.128C18.664 47.128 19.456 46.912 20.048 46.48C20.656 46.048 20.96 45.456 20.96 44.704C20.96 44.08 20.816 43.576 20.528 43.192C20.24 42.808 19.848 42.496 19.352 42.256C18.872 42 18.344 41.776 17.768 41.584C17.192 41.376 16.616 41.16 16.04 40.936C15.464 40.696 14.936 40.408 14.456 40.072C13.976 39.72 13.584 39.264 13.28 38.704C12.992 38.144 12.848 37.44 12.848 36.592C12.848 35.648 13.072 34.848 13.52 34.192C13.984 33.52 14.608 33.008 15.392 32.656C16.192 32.288 17.088 32.104 18.08 32.104C19.168 32.104 20.144 32.32 21.008 32.752C21.872 33.168 22.576 33.72 23.12 34.408L21.584 35.944C21.088 35.368 20.552 34.936 19.976 34.648C19.416 34.36 18.768 34.216 18.032 34.216C17.136 34.216 16.424 34.416 15.896 34.816C15.368 35.2 15.104 35.744 15.104 36.448C15.104 37.008 15.248 37.464 15.536 37.816C15.84 38.152 16.232 38.44 16.712 38.68C17.192 38.92 17.72 39.144 18.296 39.352C18.888 39.544 19.472 39.76 20.048 40C20.624 40.24 21.152 40.544 21.632 40.912C22.112 41.28 22.496 41.76 22.784 42.352C23.088 42.928 23.24 43.656 23.24 44.536C23.24 46.008 22.728 47.16 21.704 47.992C20.696 48.824 19.328 49.24 17.6 49.24ZM27.6485 49V32.824H29.8085V49H27.6485ZM24.8405 39.568V37.6H32.6165V39.568H24.8405ZM39.6609 49.24C38.5249 49.24 37.5009 48.984 36.5889 48.472C35.6769 47.944 34.9569 47.232 34.4289 46.336C33.9009 45.44 33.6369 44.424 33.6369 43.288C33.6369 42.168 33.8929 41.16 34.4049 40.264C34.9329 39.368 35.6369 38.664 36.5169 38.152C37.4129 37.624 38.4129 37.36 39.5169 37.36C40.5729 37.36 41.5009 37.6 42.3009 38.08C43.1169 38.56 43.7489 39.224 44.1969 40.072C44.6609 40.92 44.8929 41.88 44.8929 42.952C44.8929 43.112 44.8849 43.288 44.8689 43.48C44.8529 43.656 44.8209 43.864 44.7729 44.104H35.1489V42.304H43.6209L42.8289 43C42.8289 42.232 42.6929 41.584 42.4209 41.056C42.1489 40.512 41.7649 40.096 41.2689 39.808C40.7729 39.504 40.1729 39.352 39.4689 39.352C38.7329 39.352 38.0849 39.512 37.5249 39.832C36.9649 40.152 36.5329 40.6 36.2289 41.176C35.9249 41.752 35.7729 42.432 35.7729 43.216C35.7729 44.016 35.9329 44.72 36.2529 45.328C36.5729 45.92 37.0289 46.384 37.6209 46.72C38.2129 47.04 38.8929 47.2 39.6609 47.2C40.3009 47.2 40.8849 47.088 41.4129 46.864C41.9569 46.64 42.4209 46.304 42.8049 45.856L44.1969 47.272C43.6529 47.912 42.9809 48.4 42.1809 48.736C41.3969 49.072 40.5569 49.24 39.6609 49.24ZM53.2481 49.24C52.3841 49.24 51.6001 49.064 50.8961 48.712C50.2081 48.344 49.6561 47.84 49.2401 47.2C48.8241 46.56 48.5921 45.832 48.5441 45.016V41.584C48.5921 40.752 48.8241 40.024 49.2401 39.4C49.6721 38.76 50.2321 38.264 50.9201 37.912C51.6241 37.544 52.4001 37.36 53.2481 37.36C54.2881 37.36 55.2241 37.624 56.0561 38.152C56.9041 38.68 57.5681 39.392 58.0481 40.288C58.5281 41.184 58.7681 42.192 58.7681 43.312C58.7681 44.432 58.5281 45.44 58.0481 46.336C57.5681 47.232 56.9041 47.944 56.0561 48.472C55.2241 48.984 54.2881 49.24 53.2481 49.24ZM52.8881 47.2C53.6081 47.2 54.2401 47.032 54.7841 46.696C55.3281 46.36 55.7601 45.904 56.0801 45.328C56.4001 44.736 56.5601 44.056 56.5601 43.288C56.5601 42.536 56.4001 41.864 56.0801 41.272C55.7601 40.68 55.3281 40.224 54.7841 39.904C54.2401 39.568 53.6161 39.4 52.9121 39.4C52.1921 39.4 51.5601 39.568 51.0161 39.904C50.4721 40.224 50.0481 40.68 49.7441 41.272C49.4401 41.864 49.2881 42.544 49.2881 43.312C49.2881 44.064 49.4321 44.736 49.7201 45.328C50.0241 45.904 50.4481 46.36 50.9921 46.696C51.5521 47.032 52.1841 47.2 52.8881 47.2ZM47.2481 53.776V37.6H49.4081V40.6L49.0001 43.36L49.4081 46.144V53.776H47.2481ZM70.553 49.24C69.465 49.24 68.473 49.04 67.577 48.64C66.697 48.224 65.953 47.624 65.345 46.84L66.881 45.304C67.249 45.864 67.753 46.312 68.393 46.648C69.033 46.968 69.745 47.128 70.529 47.128C71.265 47.128 71.897 46.992 72.425 46.72C72.969 46.432 73.393 46.032 73.697 45.52C74.017 45.008 74.177 44.416 74.177 43.744C74.177 43.056 74.017 42.464 73.697 41.968C73.393 41.456 72.961 41.064 72.401 40.792C71.841 40.52 71.177 40.384 70.409 40.384C70.121 40.384 69.833 40.408 69.545 40.456C69.257 40.488 68.977 40.544 68.705 40.624L69.665 39.328C69.969 39.184 70.297 39.072 70.649 38.992C71.001 38.912 71.353 38.872 71.705 38.872C72.601 38.872 73.401 39.08 74.105 39.496C74.825 39.912 75.393 40.496 75.809 41.248C76.241 42 76.457 42.872 76.457 43.864C76.457 44.92 76.201 45.856 75.689 46.672C75.193 47.472 74.505 48.104 73.625 48.568C72.745 49.016 71.721 49.24 70.553 49.24ZM68.705 40.624V39.256L73.577 33.712L76.265 33.688L71.249 39.376L68.705 40.624ZM66.137 34.36V32.344H76.265V33.688L74.297 34.36H66.137ZM80.7791 49.24C80.3311 49.24 79.9551 49.088 79.6511 48.784C79.3631 48.464 79.2191 48.096 79.2191 47.68C79.2191 47.216 79.3631 46.84 79.6511 46.552C79.9551 46.248 80.3311 46.096 80.7791 46.096C81.2271 46.096 81.5951 46.248 81.8831 46.552C82.1871 46.84 82.3391 47.216 82.3391 47.68C82.3391 48.096 82.1871 48.464 81.8831 48.784C81.5951 49.088 81.2271 49.24 80.7791 49.24ZM80.7791 41.752C80.3311 41.752 79.9551 41.6 79.6511 41.296C79.3631 40.992 79.2191 40.624 79.2191 40.192C79.2191 39.728 79.3631 39.352 79.6511 39.064C79.9551 38.76 80.3311 38.608 80.7791 38.608C81.2271 38.608 81.5951 38.76 81.8831 39.064C82.1871 39.352 82.3391 39.728 82.3391 40.192C82.3391 40.624 82.1871 40.992 81.8831 41.296C81.5951 41.6 81.2271 41.752 80.7791 41.752Z" fill="white"/>
</svg>
