<svg width="30" height="30" viewBox="0 0 30 30" fill="none" xmlns="http://www.w3.org/2000/svg">
<rect width="30" height="30" rx="15" fill="#DCF4E5"/>
<path d="M11.6892 19.9314L15.7434 15.6257C16.0787 15.2695 16.3511 14.95 16.5606 14.6671C16.7701 14.3843 16.922 14.1171 17.0163 13.8657C17.1106 13.6143 17.1577 13.3576 17.1577 13.0957C17.1577 12.6033 16.9954 12.221 16.6706 11.9486C16.3563 11.6657 15.953 11.5243 15.4606 11.5243C14.9368 11.5243 14.4758 11.6552 14.0777 11.9171C13.6796 12.179 13.3234 12.5876 13.0092 13.1429L11.752 12.1057C12.1815 11.3619 12.7106 10.8014 13.3392 10.4243C13.9677 10.0367 14.6958 9.84286 15.5234 9.84286C16.2044 9.84286 16.8015 9.97905 17.3149 10.2514C17.8282 10.5238 18.2263 10.9062 18.5092 11.3986C18.792 11.8805 18.9334 12.441 18.9334 13.08C18.9334 13.541 18.8758 13.9548 18.7606 14.3214C18.6558 14.6776 18.4725 15.039 18.2106 15.4057C17.9487 15.7619 17.5873 16.181 17.1263 16.6629L14.0149 19.8843L11.6892 19.9314ZM11.6892 21V19.9314L13.2449 19.3814H19.1534V21H11.6892Z" fill="#23A455"/>
</svg>
