<svg width="30" height="30" viewBox="0 0 30 30" fill="none" xmlns="http://www.w3.org/2000/svg">
<rect width="30" height="30" rx="15" fill="#DCF4E5"/>
<path d="M15.1226 21.1571C14.3892 21.1571 13.724 21.0262 13.1268 20.7643C12.5402 20.4919 12.0426 20.099 11.634 19.5857L12.8597 18.36C13.0797 18.6952 13.3887 18.9624 13.7868 19.1614C14.1849 19.3605 14.6197 19.46 15.0911 19.46C15.5416 19.46 15.9292 19.3762 16.254 19.2086C16.5787 19.041 16.8302 18.8052 17.0083 18.5014C17.1968 18.1976 17.2911 17.8467 17.2911 17.4486C17.2911 17.0295 17.1968 16.6733 17.0083 16.38C16.8302 16.0867 16.5683 15.8614 16.2226 15.7043C15.8873 15.5367 15.4787 15.4529 14.9968 15.4529C14.8083 15.4529 14.6145 15.4686 14.4154 15.5C14.2164 15.521 14.0383 15.5576 13.8811 15.61L14.6826 14.5729C14.9026 14.489 15.133 14.421 15.374 14.3686C15.6254 14.3057 15.8664 14.2743 16.0968 14.2743C16.6626 14.2743 17.1706 14.4105 17.6211 14.6829C18.0821 14.9552 18.4435 15.3376 18.7054 15.83C18.9778 16.3119 19.114 16.8829 19.114 17.5429C19.114 18.2552 18.9464 18.8838 18.6111 19.4286C18.2759 19.9733 17.8097 20.3976 17.2126 20.7014C16.6154 21.0052 15.9187 21.1571 15.1226 21.1571ZM13.8811 15.61V14.5414L16.8197 11.1157L18.9883 11.0686L15.924 14.5886L13.8811 15.61ZM12.184 11.6186V10H18.9883V11.0686L17.4326 11.6186H12.184Z" fill="#23A455"/>
</svg>
