<svg width="30" height="30" viewBox="0 0 30 30" fill="none" xmlns="http://www.w3.org/2000/svg">
<rect width="30" height="30" rx="15" fill="#DCF4E5"/>
<path d="M15.0999 21.1571C14.3351 21.1571 13.6542 21.0262 13.057 20.7643C12.4599 20.4919 11.957 20.099 11.5485 19.5857L12.7742 18.36C12.9942 18.6952 13.3032 18.9624 13.7013 19.1614C14.1099 19.3605 14.5656 19.46 15.0685 19.46C15.5294 19.46 15.9328 19.3762 16.2785 19.2086C16.6242 19.041 16.8966 18.8 17.0956 18.4857C17.2947 18.1714 17.3942 17.7995 17.3942 17.37C17.3942 16.9195 17.2947 16.5476 17.0956 16.2543C16.907 15.9505 16.6504 15.7252 16.3256 15.5786C16.0113 15.4214 15.6709 15.3429 15.3042 15.3429C14.8851 15.3429 14.508 15.39 14.1728 15.4843C13.848 15.5786 13.5285 15.7462 13.2142 15.9871L13.2613 14.8557C13.4289 14.6357 13.6228 14.4576 13.8428 14.3214C14.0628 14.1748 14.3194 14.0648 14.6128 13.9914C14.9061 13.9181 15.2518 13.8814 15.6499 13.8814C16.4251 13.8814 17.0747 14.0438 17.5985 14.3686C18.1328 14.6933 18.5361 15.1281 18.8085 15.6729C19.0809 16.2071 19.217 16.8043 19.217 17.4643C19.217 18.1767 19.0389 18.8105 18.6828 19.3657C18.337 19.921 17.8551 20.361 17.237 20.6857C16.6189 21 15.9066 21.1571 15.0999 21.1571ZM13.2142 15.9871L12.2242 14.9971L12.7113 10H14.3613L13.7956 15.2014L13.2142 15.9871ZM13.0256 11.6186L12.7113 10H18.6042V11.6186H13.0256Z" fill="#23A455"/>
</svg>
