<svg width="30" height="30" viewBox="0 0 30 30" fill="none" xmlns="http://www.w3.org/2000/svg">
<rect width="30" height="30" rx="15" fill="#DCF4E5"/>
<path d="M15.5037 21.1571C14.7704 21.1571 14.1104 20.9895 13.5237 20.6543C12.9371 20.3086 12.4709 19.8476 12.1252 19.2714C11.7899 18.6952 11.6223 18.0562 11.6223 17.3543C11.6223 16.3486 11.9733 15.3324 12.6752 14.3057L15.6766 10H17.7666L14.5609 14.51L13.9009 14.9029C14.0056 14.6619 14.1366 14.4576 14.2937 14.29C14.4614 14.1119 14.6761 13.9757 14.938 13.8814C15.2104 13.7871 15.5456 13.74 15.9437 13.74C16.5828 13.74 17.159 13.8919 17.6723 14.1957C18.1961 14.489 18.6152 14.9029 18.9295 15.4371C19.2437 15.961 19.4009 16.579 19.4009 17.2914C19.4009 18.0038 19.228 18.6533 18.8823 19.24C18.5366 19.8267 18.0652 20.2929 17.468 20.6386C16.8814 20.9843 16.2266 21.1571 15.5037 21.1571ZM15.5037 19.46C15.9018 19.46 16.258 19.3657 16.5723 19.1771C16.8866 18.9886 17.1328 18.7319 17.3109 18.4071C17.4995 18.0719 17.5937 17.7 17.5937 17.2914C17.5937 16.8829 17.4995 16.5162 17.3109 16.1914C17.1328 15.8667 16.8866 15.6152 16.5723 15.4371C16.258 15.2486 15.9018 15.1543 15.5037 15.1543C15.1056 15.1543 14.7495 15.2486 14.4352 15.4371C14.1209 15.6257 13.8747 15.8824 13.6966 16.2071C13.5185 16.5214 13.4295 16.8829 13.4295 17.2914C13.4295 17.7 13.5185 18.0719 13.6966 18.4071C13.8747 18.7319 14.1209 18.9886 14.4352 19.1771C14.7495 19.3657 15.1056 19.46 15.5037 19.46Z" fill="#23A455"/>
</svg>
