<svg width="33" height="32" viewBox="0 0 33 32" fill="none" xmlns="http://www.w3.org/2000/svg">
<g id="ph:caret-down-bold">
<path id="Vector" d="M27.1371 13.0615L17.1371 23.0615C16.9978 23.2013 16.8322 23.3123 16.6499 23.388C16.4675 23.4637 16.272 23.5027 16.0746 23.5027C15.8772 23.5027 15.6817 23.4637 15.4994 23.388C15.3171 23.3123 15.1515 23.2013 15.0121 23.0615L5.01212 13.0615C4.73033 12.7797 4.57202 12.3975 4.57202 11.999C4.57202 11.6005 4.73033 11.2183 5.01212 10.9365C5.29392 10.6547 5.67611 10.4964 6.07462 10.4964C6.47314 10.4964 6.85533 10.6547 7.13712 10.9365L16.0759 19.8752L25.0146 10.9352C25.2964 10.6534 25.6786 10.4951 26.0771 10.4951C26.4756 10.4951 26.8578 10.6534 27.1396 10.9352C27.4214 11.217 27.5797 11.5992 27.5797 11.9977C27.5797 12.3962 27.4214 12.7784 27.1396 13.0602L27.1371 13.0615Z" fill="black"/>
</g>
</svg>
